<svg width="1001" height="953" viewBox="0 0 1001 953" fill="none" xmlns="http://www.w3.org/2000/svg">
<path d="M421 573C409.5 570 384.5 543 375 538.5L469.5 332.5C596.5 376 647.5 414.5 661.5 427.5C677 440.5 703 462.5 711 472.5C720 483 738.5 501.5 744 514.5C749.5 523.5 763.667 568 766 575.5L780.5 579L809 589C823.333 594.667 855.6 609.1 870 615.5C888 623.5 890 627 891 629.5C892 632 898.5 641.5 881 661C858.5 675.5 834 667.5 814 658.5C791.5 652.5 770.5 636.5 744.5 636.5C717 636 693 646.5 678.5 650C657.822 654.991 612 657 565.5 636C528 624 459 592.5 421 573Z" fill="#000706"/>
<path d="M578 608.5L585.5 588C599 579 611.8 580 615 578C619 575.5 638.5 571.5 657 571.5C675.608 571.5 686 576.5 707.5 582.5C729 588.5 753.5 601 756 600.5C758.5 600 772.5 601.5 779.5 597.5C786.5 593.5 791 603.5 792.5 597.5C794 591.5 793 594 793 591C793 588.463 792.285 585.568 791.156 584.13C785.155 586.363 789.322 582.714 790.5 583.5C790.731 583.654 790.951 583.868 791.156 584.13C791.267 584.089 791.382 584.045 791.5 584C792.167 585.333 798 590 798 594C798 597.018 797.905 605.254 797.93 611.836C797.944 615.533 797.066 619.287 794.435 621.885C789.692 626.566 781.7 631.289 770.5 632.5C755.5 633.5 747.667 631 745 630C731 624.75 708.2 615.8 705 615C701 614 682.5 604.5 657.5 600C643 599 636 595 611.5 601.5C597.5 604.5 585.5 606.5 578 608.5Z" fill="#004A39"/>
<path d="M768.5 632L769 612C777 611.5 786 610.5 791 606C796 601.5 796.5 600 796.5 596C796.5 592.5 794.333 588.667 793.5 586C790.5 587 792.8 584.7 794 585.5C795.2 586.3 797.5 589.5 798 592.5V612C798 625.5 778 631.5 768.5 632Z" fill="#00261A"/>
<path d="M671.5 533.5C666 526.5 660 506 658 494.5L585.5 588C594.5 584 605 583.5 616 580.5C632.5 577 643.5 576.5 650 577C659 578.5 662 579 676 581.5C692.5 585 709 593.5 713.5 595C717.1 596.2 740 605.5 753 609.5C756 610 761.6 612.6 770 611C801.5 606 798.5 597 797 589C791.5 580 780.5 578 776.5 576.5C772.5 575 750.5 570.5 744.5 569C738.5 567.5 719 562.5 699.5 556C686.5 550 676 541.5 671.5 533.5Z" fill="#FF3320"/>
<path d="M585.499 588L577.999 608.5C555.999 612 548.499 611 522.499 609C511.499 609 495.999 605 471.499 597C466.999 596.534 446.999 589.5 427.499 578.5C417.499 575 374.999 544.5 360.999 527C348.499 515.5 314.499 470.5 303.499 429.5C294.292 363 303.999 340.5 351.999 313.5C354.499 319 383.599 497.3 391.999 504.5C402.499 513.5 413.499 532.5 418.499 533C426.999 539 436.499 551 464.999 559C478.499 565 499.999 573 509.999 576C518.999 576 551.499 583 560.499 578.5C567.699 574.9 576.499 592.5 585.499 588Z" fill="#D69550"/>
<path d="M657.999 494.5L585.499 588C572.499 593 559.999 590 534.499 590C518.499 588 504.999 586.241 488.999 581.5C475.499 577.5 453.999 570 434.999 558C421.499 551.25 395.999 534 383.499 519.5C378.499 515.5 358.499 498 338.999 464C335.879 456 312.999 419.5 315.499 375C322.265 320.195 352.999 310.5 377.999 308C451.999 308 522.999 361.5 540.999 372.5C572.999 392.056 603.524 422.723 615.499 433.5C640.499 456 655.832 486.167 657.999 494.5Z" fill="#FFFFDE"/>
<ellipse cx="630.966" cy="161.882" rx="6.67961" ry="22.7758" transform="rotate(96.8903 630.966 161.882)" fill="black" fill-opacity="0.05"/>
<circle cx="453.5" cy="47.5" r="46.5" fill="#FF3220"/>
</svg>
