<svg width="1001" height="976" viewBox="0 0 1001 976" fill="none" xmlns="http://www.w3.org/2000/svg">
<path d="M530 402C518.8 394 439.667 362.667 401.5 348L386 349L387.5 392L496 479.5C507.5 514.333 530.8 584.4 532 586C533.5 588 542 591.5 547 593.5C552 595.5 572.5 604.5 580.5 607.5C588.5 610.5 602 615.5 605 616.5C608 617.5 626 627 641.5 632C657 637 683 644 706 645.5C729 647 733 648 746.5 650C760 652 789 664 797 666.5C805 669 841 682 849 683.5C857 685 875 685.5 880 684.5C885 683.5 888.5 674 891 670C893.5 666 893 662.5 891.5 659.5C890 656.5 885 653.5 877 650C869 646.5 805 620 799.5 618C794 616 763 608.5 761 607C759 605.5 746 589.5 733.5 572C721 554.5 664 511 624.5 476.5C585 442 544 412 530 402Z" fill="#000706"/>
<path d="M583.5 600L593.5 577L638 581C647.833 582.667 667.9 586.1 669.5 586.5C671.1 586.9 695.167 596 707 600.5L799.5 621L796.493 641.618C796.196 643.657 794.697 645.374 792.702 645.892C788.758 646.915 781.946 648.344 773 648C760 647.5 747.5 643 743 642C738.5 641 703 628.5 693.5 625C684 621.5 643.5 608 636.5 607C630.9 606.2 598.833 602 583.5 600Z" fill="#004A39"/>
<path d="M657 545.5L593.5 577C600.333 578 616.8 580.3 628 581.5C642 583 663 589 669 590.5C675 592 697.5 600.5 705.5 603.5C713.5 606.5 740 616.5 747 618.5C754 620.5 769.5 623.5 780.5 624C791.5 624.5 798 623 799 621.5C800 620 797.5 618 796 616.5C794.5 615 786 611.5 784 610.5C782.4 609.7 767 605.5 759.5 603.5C747.667 600.167 720.7 592.4 707.5 588C691 582.5 674 571 671 568C668.6 565.6 660.667 552 657 545.5Z" fill="#FF3320"/>
<path d="M773 624.5C791.8 626.5 798.5 623 799.5 621L796 643C796 643.167 795.7 643.7 794.5 644.5C792.5 646.9 777 646.5 769.5 646C769.667 645.333 770.6 640.1 773 624.5Z" fill="#00261A"/>
<path d="M322 358C323.6 354.4 340 343.167 348 338L358.5 351.5L521.5 516L593.5 577C593 578.167 590.3 584.4 583.5 600C573.5 599.2 546.667 591.333 534.5 587.5C482.5 572.5 451.5 547.5 422.5 529.5C393.5 511.5 355.5 465 346.5 452.5C337.5 440 326 417.5 320.5 399.5C315 381.5 320 362.5 322 358Z" fill="#D69550"/>
<path d="M657 545.5L593.5 577C587.5 576.333 570.7 573.5 551.5 567.5C527.5 560 500.5 548 466.5 529C432.5 510 413 491 379.5 456.5C346 422 339 387.5 338 384.5C337 381.5 330 349 347 338C364 327 398 343.5 415 353.5C432 363.5 462.5 382.5 472 389.5C481.5 396.5 530 434.5 545.5 446C561 457.5 589.5 481 615 501.5C635.4 517.9 651.5 537.667 657 545.5Z" fill="#DEC684"/>
<circle cx="453.5" cy="46.5" r="46.5" fill="#FF3220"/>
</svg>
