<svg width="1001" height="993" viewBox="0 0 1001 993" fill="none" xmlns="http://www.w3.org/2000/svg">
<path d="M404.5 369C400.5 368.6 394.167 374.167 391.5 377L381 380L582.5 610L601.5 628.5C606 630 616.4 633.6 622 636C629 639 658.5 651 673 655.5C687.5 660 706.5 662 722.5 662C735.3 662 752.5 667.333 759.5 670C788.833 680.167 849.6 700.7 858 701.5C868.5 702.5 881.5 701 882.5 700.5C883.5 700 892.5 689 893.5 683C894.5 677 885.5 672.5 877.5 668.5C871.1 665.3 815.5 642.167 788.5 631L780 630.5C774.5 631.667 761.6 631 754 619C744.5 604 686.5 557 678 550C669.5 543 600.5 490.5 599 488.5C597.5 486.5 534 437.5 526.5 430.5C519 423.5 493 405 487.5 402C483.1 399.6 449.333 386.333 433 380C425.167 376.5 408.5 369.4 404.5 369Z" fill="#000706"/>
<path d="M349.5 375.5C342 363.5 345 363.5 345.5 363H357.5L532 504.5L640.5 599C642.5 609.833 644.6 632.2 637 635C627.5 638.5 613 632 594.5 624.5C576 617 560.5 607 548.5 599C536.5 591 505 565 496.5 557.5C488 550 451 513 444 504.5C437 496 408 461 398.5 447.5C389 434 357 387.5 349.5 375.5Z" fill="#C7B17A"/>
<path d="M608 545.5L595.5 568L636.5 611L704 635C726 640.833 769.9 652.5 769.5 652.5C769.1 652.5 783.333 662.5 790.5 667.5C791.833 665.333 794.8 659.9 796 655.5C797.5 650 799.5 642 798.5 639C797.5 636 785 629.5 778.5 626C772 622.5 748.5 617.5 729.5 612C710.5 606.5 696 601.5 670 589.5C649.2 579.9 620 556.167 608 545.5Z" fill="#004A39"/>
<path d="M771 647L777.5 628C783.833 630.667 796.9 636.8 798.5 640C800.1 643.2 794.833 658 792 665V660.5C790.8 655.7 777.5 649.5 771 647Z" fill="#00261A"/>
<path d="M638 636L595.5 568C599.167 570.5 608 576.8 614 582C621.5 588.5 637 599.5 641.5 602.5C646 605.5 659.5 612.5 670.5 618C679.3 622.4 699.167 628.833 708 631.5L741 640.5L769.5 649C777.5 651.833 793.1 659.2 791.5 666C789.9 672.8 771.5 668.833 762.5 666L737 657.5L706 646.5L683 638.5C678.167 636.5 666.6 632.4 659 632C651.4 631.6 641.833 634.5 638 636Z" fill="#FF3320"/>
<path d="M474 438C458 425.2 402 380.333 376 359.5L366.5 364L475.5 460.5L602.5 544C591.5 534.5 567.2 513.5 558 505.5C546.5 495.5 494 454 474 438Z" fill="#43392D"/>
<path d="M608 545.5L595.5 568C593 563.5 500.5 497.5 476 478.5C451.5 459.5 415.5 428.5 402 417.5C388.5 406.5 345 364.5 345 363C345 361.5 363 349 365 349.5C367 350 393 374 402 384C411 394 490 457.5 502 466.5C511.6 473.7 576.667 522.167 608 545.5Z" fill="#D69550"/>
<circle cx="453.5" cy="46.5" r="46.5" fill="#FF3220"/>
</svg>
