<svg width="1001" height="1011" viewBox="0 0 1001 1011" fill="none" xmlns="http://www.w3.org/2000/svg">
<path d="M476 829C413.2 828.6 379.167 801.167 370 787.5L580.5 453.5C617.167 468.667 691.7 499.7 696.5 502.5C702.5 506 711.5 508.5 736 535.5C755.6 557.1 760.833 601.833 761 621.5C762 623 767 626.1 779 626.5C791 626.9 856 657 887 672C891.333 677.5 897.4 693.3 887 712.5C876.6 731.7 849.333 736.167 837 736C822.5 731.167 791.3 720.9 782.5 718.5C771.5 715.5 749 714.5 729 721.5C709 728.5 676 758.5 645 779C614 799.5 554.5 829.5 476 829Z" fill="#000706"/>
<path d="M586 455.5C638 485.9 655.667 527.167 658 544C655.167 591.167 637.9 697.3 591.5 744.5C533.5 803.5 456 812.5 449 813.5C442 814.5 413.5 817.5 382.5 804.5C357.7 794.1 344.5 776.833 341 769.5L464 622.5C483 554.167 534 425.1 586 455.5Z" fill="#D69550"/>
<path d="M650.5 535C649 533.5 649 533.5 648 536.5L645 561.5L584 730C583.667 731.333 582.9 734.2 582.5 735C582.1 735.8 588.333 741.667 591.5 744.5C599.833 736.167 618.9 717 628.5 707C640.5 694.5 652 690 665 685C678 680 693 683.5 713 690C733 696.5 755.5 703.5 762.5 703C769.5 702.5 776.5 699 781.5 695.5C786.5 692 797 685.5 800 666.5C803 647.5 790.5 635 785 632C779.5 629 676 614 673 607C670.6 601.4 662 562.667 658 544C656 541.5 651.7 536.2 650.5 535Z" fill="#004A39"/>
<mask id="mask0_14_812" style="mask-type:alpha" maskUnits="userSpaceOnUse" x="582" y="534" width="219" height="211">
<path d="M650.5 535C649 533.5 649 533.5 648 536.5L645 561.5L584 730C583.667 731.333 582.9 734.2 582.5 735C582.1 735.8 588.333 741.667 591.5 744.5C599.833 736.167 618.9 717 628.5 707C640.5 694.5 652 690 665 685C678 680 693 683.5 713 690C733 696.5 755.5 703.5 762.5 703C769.5 702.5 776.5 699 781.5 695.5C786.5 692 797 685.5 800 666.5C803 647.5 790.5 635 785 632C779.5 629 676 614 673 607C670.6 601.4 662 562.667 658 544C656 541.5 651.7 536.2 650.5 535Z" fill="#004A39"/>
</mask>
<g mask="url(#mask0_14_812)">
<path d="M772 700.5C771 699.5 769.5 693.5 769.5 691C772.333 689.833 779.3 686.4 784.5 682C791 676.5 794 668.5 795.5 657.5C797 646.5 785.5 634 789 635.5C791.8 636.7 803.167 649 808.5 655C806.667 665.667 802.6 687.8 801 691C799 695 789.5 704 787.5 704.5C785.5 705 773 701.5 772 700.5Z" fill="#00261A"/>
</g>
<path d="M648 536L584 730C594.5 719.333 617.2 696.6 624 691C632.5 684 632.5 681.5 654.5 673.5C676.5 665.5 704 677 722 683C740 689 749.5 695 769 688.5C788.5 682 793.5 666.5 794.5 651.5C795.5 636.5 785 631.5 778.5 626C772 620.5 756 620.5 732 619.5C708 618.5 702 618.5 683.5 610.5C668.7 604.1 660 586.833 657.5 579L648 536Z" fill="#FF3320"/>
<path d="M588.5 457C626.9 479.4 644.167 519.333 648 536.5L584 730C567 748.833 517 789.1 453 799.5C373 812.5 344 778.5 339 771.5C334 764.5 315.5 748 317.5 698C319.5 648 338.5 581.5 400.5 509.5C462.5 437.5 540.5 429 588.5 457Z" fill="#FFFFFB"/>
<circle cx="453.5" cy="46.5" r="46.5" fill="#FF3220"/>
</svg>
