<svg width="1001" height="1011" viewBox="0 0 1001 1011" fill="none" xmlns="http://www.w3.org/2000/svg">
<path d="M696 540.5C672.4 527.7 622.167 509.5 600 502L344 796.5C352 800.333 371.7 809.5 386.5 815.5C405 823 441.5 825.5 482 823.5C522.5 821.5 576 805 601.5 795C621.9 787 649.667 770.333 661 763C671.667 755.167 697.8 736.7 717 725.5C743 714.5 759 715.5 774.5 716.5C790 717.5 830 736.5 844.5 735C859 733.5 881 727 889.5 709C898 691 889 676.5 882.5 671.5C877.3 667.5 808.333 640.167 774.5 627L760.5 631C760.333 646.667 758.8 667.8 754 627C748 576 725.5 556.5 696 540.5Z" fill="#000706"/>
<path d="M343 797C427 825 539.333 767.333 585 735L656.5 567C656.333 565.5 655.8 561.8 655 559C654.2 556.2 646.667 543.833 643 538L566.5 516L300 732C299.167 745.833 306.6 778.2 343 797Z" fill="#D69550"/>
<path d="M655.5 562C653.1 556.4 651.167 555.667 650.5 556L578.5 716.5C578.167 717.167 577.5 718.6 577.5 719C577.5 719.4 582.5 729.833 585 735C590.667 730.167 604.8 718.3 616 709.5C630 698.5 641 690.5 656 685C671 679.5 692 683 696 684C700 685 732 694.5 736 695.5C740 696.5 753 702.5 770.5 698.5C788 694.5 796.5 680.5 798.5 676C800.5 671.5 798.5 657 797.5 649C796.7 642.6 790.833 638 788 636.5C749.833 628.333 675 631.5 672.5 610.5C672.287 608.71 666.5 602 666 599.5C665.5 597 658.5 569 655.5 562Z" fill="#004A39"/>
<mask id="mask0_14_813" style="mask-type:alpha" maskUnits="userSpaceOnUse" x="577" y="555" width="223" height="180">
<path d="M655.5 562C653.1 556.4 651.167 555.667 650.5 556L578.5 716.5C578.167 717.167 577.5 718.6 577.5 719C577.5 719.4 582.5 729.833 585 735C590.667 730.167 604.8 718.3 616 709.5C630 698.5 641 690.5 656 685C671 679.5 692 683 696 684C700 685 732 694.5 736 695.5C740 696.5 753 702.5 770.5 698.5C788 694.5 796.5 680.5 798.5 676C800.5 671.5 798.5 657 797.5 649C796.7 642.6 790.833 638 788 636.5C749.833 628.333 675 631.5 672.5 610.5C672.287 608.71 666.5 602 666 599.5C665.5 597 658.5 569 655.5 562Z" fill="#004A39"/>
</mask>
<g mask="url(#mask0_14_813)">
<path d="M769.5 698L768 684.5C770 683.5 775.2 681 780 679C786 676.5 791.5 669 796 658C799.404 649.68 793.839 641.003 790.123 637.123L789.5 636.5C789.7 636.691 789.908 636.899 790.123 637.123L800 647L821.5 673C819.167 679 814.3 691.2 813.5 692C812.5 693 791.5 709.5 790.5 710C789.7 710.4 776.167 702.167 769.5 698Z" fill="#00261A"/>
</g>
<path d="M578.5 716.5L650.5 556C653.5 568.333 660.9 595 666.5 603C673.5 613 702 621.5 714 622.5C726 623.5 760 624 771.5 625.5C783 627 789.5 635 791 636.5C792.5 638 800.5 651.5 792.5 663.5C784.5 675.5 774.5 681 759 683C743.5 685 723.5 675.5 712.5 672C701.5 668.5 686 664.5 667.5 665C649 665.5 627.5 677.5 624.5 679.5C622.1 681.1 592.833 704.833 578.5 716.5Z" fill="#FF3320"/>
<path d="M650.5 556L578.5 716.5C457 805 351.5 787 343 785L342.873 784.97C334.138 782.916 297.508 774.301 299 734C300.5 693.5 316.5 651.5 373 584C429.5 516.5 503.5 496.5 511 495C518.5 493.5 562.5 480.5 605.5 502.5C639.9 520.1 649.834 545.5 650.5 556Z" fill="#FFFFDE"/>
<circle cx="453.5" cy="46.5" r="46.5" fill="#FF3220"/>
</svg>
