<svg width="1001" height="993" viewBox="0 0 1001 993" fill="none" xmlns="http://www.w3.org/2000/svg">
<path d="M343 778.5C334.6 775.7 314 767 307.5 755L598 518.5C609.667 523.167 651.6 534.1 658 536.5C666 539.5 703 555.5 707 558C711 560.5 724 569 732 579.5C738.4 587.9 744.167 603.5 746.5 611L783 615.5L810 627C824.333 632.667 856.6 645.6 871 652C888.767 659.896 890.945 665.357 891.961 667.901L892 668C893 670.5 898.5 681.5 881 701C863.5 720.5 828.5 710.5 806 704.5C783.5 698.5 777 697 751 697C725 697 701 714 688 723.5C675 733 600.5 779.5 500 791C395.5 808 353.5 782 343 778.5Z" fill="#000706"/>
<path d="M577 683.5L582.5 705.5C588 702 603.5 691.2 617.5 682C635 670.5 638.5 669.5 658 665C677.5 660.5 693.5 664 697.5 665C700.7 665.8 729.667 673 743.5 676.5C746.167 677.5 755.2 679.1 770 677.5C781.516 676.255 790.55 668.572 795.641 662.554C798.028 659.732 798.947 656.033 798.856 652.338C798.691 645.604 798.5 637.029 798.5 634C798.5 630 796.167 625.333 795.5 624C794.333 623.167 793.3 622.7 794.5 623.5C796 624.5 796.5 627.5 796.5 630.5C796.5 633.5 797 633.5 795.5 639.5C794 645.5 787 649.5 780 653.5C773 657.5 759.5 657.5 757 658C754.5 658.5 722 650.5 700.5 644.5C679 638.5 674 640.5 655.5 642.5C637 644.5 625 652 621 654.5C617.8 656.5 590.5 674.5 577 683.5Z" fill="#004A39"/>
<path d="M768.5 677.5V661C776 659.5 785.5 654 790.5 649.5C795.5 645 796.5 640 796.5 636C797.3 633.2 795.833 627.167 795 624.5C794.667 624 794.3 623.2 795.5 624C796.7 624.8 798 631 798.5 634C798.5 634.167 798.026 638.108 798.5 652.5C800.5 665 778.385 677.639 768.5 677.5Z" fill="#00261A"/>
<path d="M660.5 583.5C660.016 581.401 653.5 563.167 650.5 554.5L577 683.5C584.333 679 600.3 668.9 609.5 662.5C621 654.5 632 650.5 637 648.5C642 646.5 656 642 670.5 641.5C685 641 699 645 703.5 646.5C707.1 647.7 735.333 654.5 749.5 658C752.5 658.5 761.1 658.6 769.5 657C798.348 650.534 797.51 637.141 797.008 629.126L797 629C796.5 621 782.5 614 778.5 612.5C774.5 611 754 610 749 609.5C744 609 716.5 608 696 605.5C675.5 603 662 590 660.5 583.5Z" fill="#FF3320"/>
<path d="M577 683.5L582.5 705.5C529.3 739.9 454.5 761 423.5 766C414 767.5 390.5 773.5 366 773.5C345 774.375 324 772.5 314 766.5C302.5 760.5 294.499 743.5 290.499 737.5C286.499 731.5 290.5 724.5 290.499 717.5C291.999 714 295.333 708.833 295.5 706C295.666 711 298.1 722.8 306.5 730C317 739 331.5 745.5 336.5 746C341.5 746.5 378 745.5 406.5 741C435 736.5 466.5 727.5 474 725.5C481.5 723.5 532 705 541 700.5C548.2 696.9 568.166 687.5 577 683.5Z" fill="#D69550"/>
<path d="M650.5 554.5L577 683.5C565.5 692 538.8 706.1 518 714.5C492 725 451 736.5 448 737.5C445 738.5 401.5 751.5 355 754C306 758 297 743 293 740C290.5 738.125 285.5 729.5 288 714C290.5 698.5 308 665 320 651.5C332 638 347.646 613.619 403.5 570C456 529 509 513 526.5 511.5C544 510 575.5 503 609.5 516.5C636.7 527.3 648.333 546.167 650.5 554.5Z" fill="#FFFFDE"/>
<circle cx="453.5" cy="46.5" r="46.5" fill="#FF3220"/>
</svg>
