<svg width="1001" height="977" viewBox="0 0 1001 977" fill="none" xmlns="http://www.w3.org/2000/svg">
<path d="M343 762.5C334.6 759.7 314 751 307.5 739L598 502.5C609.667 507.167 651.6 518.1 658 520.5C666 523.5 703 539.5 707 542C711 544.5 724 553 732 563.5C738.4 571.9 744.167 587.5 746.5 595L783 599.5L810 611C824.333 616.667 856.6 629.6 871 636C888.767 643.896 890.945 649.357 891.961 651.901L892 652C893 654.5 898.5 665.5 881 685C863.5 704.5 828.5 694.5 806 688.5C783.5 682.5 777 681 751 681C725 681 701 698 688 707.5C675 717 600.5 763.5 500 775C395.5 792 353.5 766 343 762.5Z" fill="#000706"/>
<path d="M577 667.5L582.5 689.5C588 686 603.5 675.2 617.5 666C635 654.5 638.5 653.5 658 649C677.5 644.5 693.5 648 697.5 649C700.7 649.8 729.667 657 743.5 660.5C746.167 661.5 755.2 663.1 770 661.5C781.516 660.255 790.55 652.572 795.641 646.554C798.028 643.732 798.947 640.033 798.856 636.338C798.691 629.604 798.5 621.029 798.5 618C798.5 614 796.167 609.333 795.5 608C794.333 607.167 793.3 606.7 794.5 607.5C796 608.5 796.5 611.5 796.5 614.5C796.5 617.5 797 617.5 795.5 623.5C794 629.5 787 633.5 780 637.5C773 641.5 759.5 641.5 757 642C754.5 642.5 722 634.5 700.5 628.5C679 622.5 674 624.5 655.5 626.5C637 628.5 625 636 621 638.5C617.8 640.5 590.5 658.5 577 667.5Z" fill="#004A39"/>
<path d="M768.5 661.5V645C776 643.5 785.5 638 790.5 633.5C795.5 629 796.5 624 796.5 620C797.3 617.2 795.833 611.167 795 608.5C794.667 608 794.3 607.2 795.5 608C796.7 608.8 798 615 798.5 618C798.5 618.167 798.026 622.108 798.5 636.5C800.5 649 778.385 661.639 768.5 661.5Z" fill="#00261A"/>
<path d="M660.5 567.5C660.016 565.401 653.5 547.167 650.5 538.5L577 667.5C584.333 663 600.3 652.9 609.5 646.5C621 638.5 632 634.5 637 632.5C642 630.5 656 626 670.5 625.5C685 625 699 629 703.5 630.5C707.1 631.7 735.333 638.5 749.5 642C752.5 642.5 761.1 642.6 769.5 641C798.348 634.534 797.51 621.141 797.008 613.126L797 613C796.5 605 782.5 598 778.5 596.5C774.5 595 754 594 749 593.5C744 593 716.5 592 696 589.5C675.5 587 662 574 660.5 567.5Z" fill="#FF3320"/>
<path d="M577 667.5L582.5 689.5C529.3 723.9 454.5 745 423.5 750C414 751.5 390.5 757.5 366 757.5C345 758.375 324 756.5 314 750.5C302.5 744.5 294.499 727.5 290.499 721.5C286.499 715.5 290.5 708.5 290.499 701.5C291.999 698 295.333 692.833 295.5 690C295.666 695 298.1 706.8 306.5 714C317 723 331.5 729.5 336.5 730C341.5 730.5 378 729.5 406.5 725C435 720.5 466.5 711.5 474 709.5C481.5 707.5 532 689 541 684.5C548.2 680.9 568.166 671.5 577 667.5Z" fill="#D69550"/>
<path d="M650.5 538.5L577 667.5C565.5 676 538.8 690.1 518 698.5C492 709 451 720.5 448 721.5C445 722.5 401.5 735.5 355 738C306 742 297 727 293 724C290.5 722.125 285.5 713.5 288 698C290.5 682.5 308 649 320 635.5C332 622 347.646 597.619 403.5 554C456 513 509 497 526.5 495.5C544 494 575.5 487 609.5 500.5C636.7 511.3 648.333 530.167 650.5 538.5Z" fill="#FFFFDE"/>
<circle cx="453.5" cy="46.5" r="46.5" fill="#FF3220"/>
</svg>
