<svg width="1001" height="953" viewBox="0 0 1001 953" fill="none" xmlns="http://www.w3.org/2000/svg">
<path d="M355.5 692C344 689 323 678 313.5 673.5L603.5 457C615.167 461.667 659.6 478.6 666 481C674 484 706.5 502 710.5 504.5C714.5 507 727.5 518.5 735.5 529C741.9 537.4 749.667 563.5 752 571L783 575.5L810 587C824.333 592.667 856.6 605.6 871 612C888.767 619.896 890.945 625.357 891.961 627.901L892 628C893 630.5 898.5 641.5 881 661C863.5 680.5 829.5 669.5 807 663.5C784.5 657.5 779.5 653 753.5 653C727.5 653 705 664 692 673.5C679 683 610 721.5 523 725C405.624 728.322 367.132 692.624 355.5 692Z" fill="#000706"/>
<path d="M577.5 634.5L578.5 655.5C584 652 599.855 643.476 614 634.5C634.279 621.632 648.816 620.39 662 619C681.902 616.901 695.5 622 699.5 623C702.7 623.8 730.167 632 744 635.5C746.667 636.5 755.2 638.6 770 637C781.479 635.759 789.89 628.121 794.72 622.112C797.036 619.231 797.944 615.533 797.93 611.836C797.905 605.254 798 597.018 798 594C798 590 796.167 585.333 795.5 584C794.333 583.167 793.3 582.7 794.5 583.5C796 584.5 796.5 587.5 796.5 590.5C796.5 593.5 797 593.5 795.5 599.5C794 605.5 787 609.5 780 613.5C773 617.5 759.5 617.5 757 618C754.5 618.5 721.5 609.5 700 603.5C678.5 597.5 673 596.5 654.5 598.5C636 600.5 623 607 619 609.5C615.8 611.5 591 625.5 577.5 634.5Z" fill="#004A39"/>
<path d="M768.5 636.5V619C776 617.5 785.5 614 790.5 609.5C795.5 605 796.5 600 796.5 596C797.3 593.2 795.833 587.167 795 584.5C794.667 584 794.3 583.2 795.5 584C796.7 584.8 798 589.5 798.5 592.5V612.5C798.5 626 778 636 768.5 636.5Z" fill="#00261A"/>
<path d="M663.5 540.5C662.7 538.5 653.5 513.667 650.5 505L577.5 634.5C584.833 630 599.3 622.9 608.5 616.5C620 608.5 631 605 636 603C641 601 655 599 669.5 598.5C684 598 699 603.5 703.5 605C707.1 606.2 735.333 614.5 749.5 618C752.5 618.5 760.6 619.1 769 617.5C798 611 797.5 597 797 589C796.5 581 782.5 574 778.5 572.5C774.5 571 754 569.5 749 569C744 568.5 716 565 695.5 562.5C680 558.5 664.5 543 663.5 540.5Z" fill="#FF3320"/>
<path d="M577.5 634.5L578.5 655.5C534 679 484 691 421 693.5C410 693.968 389 692.5 374.5 691C360 689.5 347 686.611 334 683C325 680.5 303.5 671.388 294 664C289.5 660.5 278.5 650 274 642.5C271.5 640.5 259.5 606.5 261.5 603C264 608.5 287.1 639.8 295.5 647C306 656 333.5 661 338.5 661.5C343.5 662 383.5 671.5 408 669.5C436.758 667.152 461.5 663.5 469 661.5C476.5 659.5 522 649.5 531 645C538.2 641.4 568.5 639 577.5 634.5Z" fill="#D69550"/>
<path d="M650.5 505L577.5 634.5C566 640.5 536 656.5 511.5 661C482.5 669 451 673.5 437.5 673.5C421.5 673.5 395 677 353 669C334 666 307 657.5 299.5 651C293.5 648 284.5 644.5 272.5 628C259 614.5 254.5 585.5 268.5 558.5C282.5 531.5 314.5 497.11 373 467C441 432 516.5 434.333 536 436.5C567.5 440 584.5 445.5 609 459C635.55 471.311 648.333 496.667 650.5 505Z" fill="#FFFFDE"/>
<path d="M539.277 453.398C521 468 500.5 471.5 483 462.5C482.908 462.372 439 447.5 431.909 438.333C424.847 427.455 438.712 405.918 462.879 390.229C487.045 374.541 509 374 521 380C521.163 380.252 569.5 402 570.703 406.066C576.662 417.166 562.884 438.073 539.277 453.398Z" fill="black" fill-opacity="0.9"/>
<circle cx="453.5" cy="400.5" r="46.5" fill="#FF3220"/>
</svg>
