<svg width="1001" height="953" viewBox="0 0 1001 953" fill="none" xmlns="http://www.w3.org/2000/svg">
<path d="M378 679C366.5 676 335.5 661 326 656.5L590.5 440C602.167 444.667 659.1 468.1 665.5 470.5C673.5 473.5 704.8 492 712 496.5C719.2 501 730.5 515.5 738.5 526C744.9 534.4 753.667 563 756 570.5L783 574L810 587C824.333 592.667 856.6 605.6 871 612C888.767 619.896 890.945 625.357 891.961 627.901L892 628C893 630.5 898.5 641.5 881 661C863.5 680.5 829.5 669.5 807 663.5C784.5 657.5 780 652.5 754 652.5C728 652.5 704 662 691 671.5C678 681 612.5 715 526 715C428 710 403 688 378 679Z" fill="#000706"/>
<path d="M577.5 631V650.5C583 647 599.355 639.476 613.5 630.5C633.779 617.632 647.316 617.89 660.5 616.5C680.402 614.401 696 621 700 622C703.2 622.8 730.167 632 744 635.5C746.667 636.5 755.2 638.6 770 637C781.479 635.759 789.89 628.121 794.72 622.112C797.036 619.231 797.944 615.533 797.93 611.836C797.905 605.254 798 597.018 798 594C798 590 796.167 585.333 795.5 584C794.333 583.167 793.3 582.7 794.5 583.5C796 584.5 796.5 587.5 796.5 590.5C796.5 593.5 797 593.5 795.5 599.5C794 605.5 787 609.5 780 613.5C773 617.5 759 616 756.5 616.5C754 617 722 606 700.5 600C679 594 672.5 592.5 654 594.5C635.5 596.5 621.5 603 617.5 605.5C614.3 607.5 591 622 577.5 631Z" fill="#004A39"/>
<path d="M768.5 636.5V619C776 617.5 785.5 614 790.5 609.5C795.5 605 796.5 600 796.5 596C797.3 593.2 795.833 587.167 795 584.5C794.667 584 794.3 583.2 795.5 584C796.7 584.8 798 589.5 798.5 592.5V612.5C798.5 626 778 636 768.5 636.5Z" fill="#00261A"/>
<path d="M665 539.5C664.2 537.5 653 510.5 651 500.5L577.5 631C584.833 626.5 598 619 608 614C620.5 606.5 631 602.5 636 600.5C641 598.5 654.5 597 669 596.5C683.5 596 699.5 602.5 704 604C707.6 605.2 736.5 614 749.5 618C752.5 618.5 760.6 619.1 769 617.5C798 611 797.5 597 797 589C796.5 581 782.5 574 778.5 572.5C774.5 571 754 569 749 568.5C744 568 716.5 564.5 696 560.5C680.5 556.5 668 544.5 665 539.5Z" fill="#FF3320"/>
<path d="M577.5 631V650.5C533 674 480.5 682.5 427.5 680C416.5 680.468 395.5 676.5 381 675C366.5 673.5 351.5 667.111 338.5 663.5C329.5 661 298 642.388 288.5 635C284 631.5 270.5 616.5 265 605C259.5 595.832 255.5 567.5 257.5 564C260 569.5 285.6 612.3 294 619.5C304.5 628.5 337.5 642 342.5 642.5C347.5 643 386 660 410.5 658C439.257 655.652 467 660 474.5 658C482 656 522 649.5 531 645C538.2 641.4 568.5 635.5 577.5 631Z" fill="#D69550"/>
<path d="M651 500.5L577.5 631C566 637 531 650.5 506.5 655C477.5 663 447.5 661 434 661C418 661 392 660 353.5 649.5C338 645.273 317.5 637 309.5 631C303.5 628 286.001 618.5 274 602C260.501 588.5 248 553 262 526C274.5 498 295 468 358.5 440.5C438 406.071 517 417 537.5 421.5C570.5 428.744 592.5 440 614 454C638.5 469.954 648.834 492.167 651 500.5Z" fill="#FFFFDE"/>
<path d="M507.5 519C495.5 533.7 470 544.5 450 538.5C447.622 539.66 435.091 513.167 428 504C420.938 493.121 405.591 480.258 429.757 464.569C453.923 448.881 475.878 448.34 487.878 454.34C488.042 454.592 502 460 509.5 466C519 476 527.5 494.5 507.5 519Z" fill="black" fill-opacity="0.9"/>
<circle cx="453.5" cy="490.5" r="46.5" fill="#FF3220"/>
</svg>
