<svg width="1001" height="953" viewBox="0 0 1001 953" fill="none" xmlns="http://www.w3.org/2000/svg">
<path d="M407.5 608C396 605 368.5 580.5 359 576L494.5 328C579 357 663 397 672 411C688 417.5 718 450 724 459C731.2 463.5 748.5 497.5 754 510.5C759.5 519.5 766.167 563 768.5 570.5L783 574L810 586C824.333 591.667 856.6 605.6 871 612C888.767 619.896 890.945 625.357 891.961 627.901L892 628C893 630.5 898.5 641.5 881 661C859.5 679.5 831 671.5 811 662.5C788.5 656.5 776 642.5 750 642.5C722.5 642 695.5 655.122 682.5 662.5C664 673 623.5 687.5 560 673C521.5 661.5 445.5 621.5 407.5 608Z" fill="#000706"/>
<path d="M581 611L577.5 628.5C584 625.5 596.5 621 609 615.5C632 604.5 641.5 606 656.5 606C682 608 699 617.5 703 618.5C706.2 619.3 730.5 629.75 744.5 635C747.167 636 755.2 638.6 770 637C781.479 635.759 789.89 628.121 794.72 622.112C797.036 619.231 797.944 615.533 797.93 611.836C797.905 605.254 798 597.018 798 594C798 590 796.167 585.333 795.5 584C794.333 583.167 793.3 582.7 794.5 583.5C796 584.5 796.5 587.5 796.5 590.5C796.5 593.5 797 593.5 795.5 599.5C794 605.5 787 609.5 780 613.5C773 617.5 759 616 756.5 616.5C754 617 724 601.5 702.5 595.5C681 589.5 672 585 653.5 587C635 589 616.5 593 612.5 595.5C609.3 597.5 594.5 602 581 611Z" fill="#004A39"/>
<path d="M768.5 636.5V619.5C776 618 786 614.5 791 610C796 605.5 796.5 600 796.5 596C797.3 593.2 795.833 587.167 795 584.5C794.667 584 794.3 583.2 795.5 584C796.7 584.8 797.5 589.5 798 592.5C798 592.667 798.5 598.1 798.5 612.5C798.5 626 778 636 768.5 636.5Z" fill="#00261A"/>
<path d="M673 532.5C667 527.5 658 491 656 479.5L581 611C588.333 606.5 598 604.5 608 599.5C621 593 632 589.846 637.5 589C644 588 653.5 588.5 668 588C683 589 703 599 707.5 600.5C711.1 601.7 738 613.5 751 617.5C754 618 760.6 619.1 769 617.5C798 611 797.5 597 797 589C796.5 581 782.5 574 778.5 572.5C774.5 571 755 566.5 750 566C745 565.5 720 559.85 700.5 554C687.5 548 676 537.5 673 532.5Z" fill="#FF3320"/>
<path d="M581 611L577.5 628.5C553.5 637.5 532 638.5 504.5 637.5C493.5 637.968 471.5 635 447 627C442.5 626.534 412 613.5 396.5 603.5C386.5 600 349.5 566.5 335.5 549C322.5 540.5 295 483.5 290.5 451C280 394 298 349.5 344.5 321C347 326.5 351.6 535.8 360 543C370.5 552 381.5 571 386.5 571.5C395 577.5 404.5 589.5 433 597.5C446.5 603.5 468 611.5 478 614.5C487 614.5 519.5 621.5 528.5 617C535.7 613.4 572 615.5 581 611Z" fill="#D69550"/>
<path d="M656 479.5L581 611C569.5 617 552 619.693 525.5 621.5C503.5 623 469.5 615.444 454.5 611C441 607 422.5 599 403.5 587C390 580.25 359 551.5 351 539.5C346 535.5 327.176 511.5 314.5 479C309.276 465.605 297.42 431 303 392.5C311.479 334 353.5 309.5 378.5 307C464 296 535.5 346 551.5 358.5C584.5 375 612.25 408.5 623 420.5C644.5 444.5 653.834 471.167 656 479.5Z" fill="#FFFFDE"/>
<ellipse cx="608.845" cy="189.507" rx="37.1063" ry="48.454" transform="rotate(57.0088 608.845 189.507)" fill="black" fill-opacity="0.2"/>
<circle cx="453.5" cy="126.5" r="46.5" fill="#FF3220"/>
</svg>
