<svg width="1001" height="953" viewBox="0 0 1001 953" fill="none" xmlns="http://www.w3.org/2000/svg">
<path d="M346.5 732C338.1 729.2 317 719.5 307.5 715L617 478.5C628.667 483.167 653.6 493.1 660 495.5C668 498.5 703 514 707 516.5L707.261 516.663C711.539 519.334 724.166 527.218 732 537.5C738.4 545.9 744.667 563 747 570.5L783 575.5L810 587C824.333 592.667 856.6 605.6 871 612C888.767 619.896 890.945 625.357 891.961 627.901L892 628C893 630.5 898.5 641.5 881 661C863.5 680.5 828.5 670.5 806 664.5C783.5 658.5 778 656.5 752 656.5C726 656.5 702.5 671 689.5 680.5C676.5 690 604 736.5 513 745.5C414.5 763.5 357 735.5 346.5 732Z" fill="#000706"/>
<path d="M576.5 644L582 663C587.5 659.5 602 650.2 616 641C633.5 629.5 638.5 628 658 623.5C677.5 619 694 623.5 698 624.5C701.2 625.3 729.667 632.5 743.5 636C746.167 637 755.2 638.6 770 637C781.492 635.758 790.512 628.406 795.608 622.528C798.03 619.735 798.947 616.033 798.856 612.338C798.691 605.604 798.5 597.029 798.5 594C798.5 590 796.167 585.333 795.5 584C794.333 583.167 793.3 582.7 794.5 583.5C796 584.5 796.5 587.5 796.5 590.5C796.5 593.5 797 593.5 795.5 599.5C794 605.5 787 609.5 780 613.5C773 617.5 759.5 617.5 757 618C754.5 618.5 722 610.5 700.5 604.5C679 598.5 674 600.5 655.5 602.5C637 604.5 625 612 621 614.5C617.8 616.5 590 635 576.5 644Z" fill="#004A39"/>
<path d="M769.5 637L769 620C776.5 618.5 785.5 614 790.5 609.5C795.5 605 796.5 600 796.5 596C797.3 593.2 795.833 587.167 795 584.5C794.667 584 794.3 583.2 795.5 584C796.7 584.8 798 591 798.5 594V612.5C800 625.5 779 636.5 769.5 637Z" fill="#00261A"/>
<path d="M661 541.5C660.2 539.5 654 521.667 651 513L576.5 644C583.833 639.5 600.8 628.9 610 622.5C621.5 614.5 631.5 610.5 636.5 608.5C641.5 606.5 656.5 602 671 601.5C685.5 601 698 604.5 702.5 606C706.1 607.2 735.333 614.5 749.5 618C752.5 618.5 760.6 619.1 769 617.5C798 611 797.5 597 797 589C796.5 581 782.5 574 778.5 572.5C774.5 571 754 570.5 749 570C744 569.5 716 567.5 695.5 565C675 562.5 662 544 661 541.5Z" fill="#FF3320"/>
<circle cx="453.5" cy="125.5" r="46.5" fill="#FF3220"/>
<path d="M576.5 644L582 663C528.801 697.4 453.5 716 422.5 721C413 722.5 392 725.5 368 726.5C344 727.5 323.5 724 312 718C300.5 712 296.5 703.5 292.5 697.5C288.5 691.5 283.5 683 282.5 680C281.7 677.6 281.834 671.333 282 668.5C282.167 673.5 284.6 685.3 293 692.5C303.5 701.5 331.5 705.5 336.5 706C341.5 706.5 378 705.5 406.5 701C435 696.5 466.5 687.5 474 685.5C481.5 683.5 532 665 541 660.5C548.2 656.9 567.667 648 576.5 644Z" fill="#D69550"/>
<path d="M651 513L576.5 644C565 650 536.8 664.1 516 672.5C490 683 444.5 694.5 441.5 695.5C438.5 696.5 386.5 708 342 707C297.5 706 286.5 687.5 286 686C285.5 684.5 280 676.5 282.5 661C285 645.5 299 616.5 311 603C323 589.5 345.5 556 404 516C462.5 476 516 466.5 533.5 465C551 463.5 576.5 461 610.5 474.5C637.7 485.3 648.833 504.667 651 513Z" fill="#FFFFDE"/>
<ellipse cx="612.252" cy="192.703" rx="39.792" ry="47.5232" transform="rotate(54.1253 612.252 192.703)" fill="black" fill-opacity="0.2"/>
</svg>
