<svg width="1001" height="953" viewBox="0 0 1001 953" fill="none" xmlns="http://www.w3.org/2000/svg">
<path d="M412 601C400.5 598 372.5 571.5 363 567L492 331C617.5 375 657 400.5 671 413.5C687.5 424 713.5 450.5 721.5 460.5C730.5 471 748 498.5 753.5 511.5C759 520.5 766.167 563 768.5 570.5L783 574L810 586C824.333 591.667 856.6 605.6 871 612C888.767 619.896 890.945 625.357 891.961 627.901L892 628C893 630.5 898.5 641.5 881 661C859.5 679.5 832.5 670.5 812.5 661.5C790 655.5 774.5 642 748.5 642C721 641.5 695 653.122 682 660.5C663.5 671 630 680.5 566.5 666C528 654.5 447.5 622 412 601Z" fill="#000706"/>
<path d="M581.5 606L578.5 623.5C585 620.5 595.5 616.5 609.5 612C632.5 601.88 642 604.5 657 604.5C682.5 607.5 699 616.5 703 617.5C706.2 618.3 731 628.75 745 634C747.667 635 755.2 637.6 770 636C781.427 634.765 789.814 627.787 794.654 622.062C797.041 619.239 797.944 615.533 797.93 611.836C797.905 605.254 798 597.018 798 594C798 590 796.167 585.333 795.5 584C794.333 583.167 793.3 582.7 794.5 583.5C796 584.5 796.5 587.5 796.5 590.5C796.5 593.5 797 593.5 795.5 599.5C794 605.5 787 609.5 780 613.5C773 617.5 759 616 756.5 616.5C754 617 725.5 601 704 595C682.5 589 672.108 584 653.5 584C635 584 615.5 588 611.5 590.5C608.3 592.5 595 597 581.5 606Z" fill="#004A39"/>
<path d="M768.5 635.5L769 618.5C776.5 617 786 614.5 791 610C796 605.5 796.5 600 796.5 596C797.3 593.2 795.833 587.167 795 584.5C794.667 584 794.3 583.2 795.5 584C796.7 584.8 797.5 589.5 798 592.5V612C798 625.5 778 635 768.5 635.5Z" fill="#00261A"/>
<path d="M672.5 533C666.5 528 658.5 493.5 656.5 482L581.5 606C590.5 602 599 599 609.5 595C623 589 632.5 586.846 638 586C644.5 585 653.5 585 668.5 586C684 588 704 598 708.5 599.5C712.1 600.7 738.5 611.5 751.5 615.5C754.5 616 760.6 618.1 769 616.5C798 610 797.5 597 797 589C796.5 581 782.5 574.5 778.5 573C774.5 571.5 755 567 750 566.5C745 566 720 560.35 700.5 554.5C687.5 548.5 675.5 538 672.5 533Z" fill="#FF3320"/>
<path d="M581.5 606L578.5 623.5C554.5 632.5 539 632.5 511.5 631.5C500.5 631.968 477.5 628.5 453 620.5C448.5 620.034 419 608.5 403.5 598.5C393.5 595 356.5 564 342.5 546.5C330 535 298 483.5 293.5 451C284.293 384.5 296.5 348 344.5 321C347 326.5 365.6 510.8 374 518C384.5 527 395.5 546 400.5 546.5C409 552.5 418.5 564.5 447 572.5C460.5 578.5 482 586.5 492 589.5C501 589.5 533.5 596.5 542.5 592C549.7 588.4 572.5 610.5 581.5 606Z" fill="#D69550"/>
<path d="M656.5 482L581.5 606C568.5 611 551 614.5 525.5 614.5C503.5 614.5 485.5 610.741 469.5 606L469.381 605.965C455.871 601.962 433.944 595.465 414.999 583.5C401.499 576.75 365.999 548 357.999 536C352.999 532 333.175 509 320.499 476.5C315.275 463.105 301.999 428.5 305.5 390C313.978 331.5 353.5 309.5 378.499 307C456.5 295.5 532 350 550 361C581.091 380 611.25 411 622 423C643.5 447 654.333 473.667 656.5 482Z" fill="#FFFFDE"/>
<ellipse cx="631.419" cy="158.141" rx="41.572" ry="50.4318" transform="rotate(68.5397 631.419 158.141)" fill="black" fill-opacity="0.1"/>
<circle cx="453.5" cy="80.5" r="46.5" fill="#FF3220"/>
</svg>
