<svg width="1001" height="1003" viewBox="0 0 1001 1003" fill="none" xmlns="http://www.w3.org/2000/svg">
<path d="M615 422.5C591.4 411.3 523.833 385.5 493 374L464 399.5L503.5 713C516 718.333 542.6 729.6 549 732C557 735 595 745.5 630.5 738C666 730.5 696 713.5 705.5 707C715 700.5 724.5 696 743.5 694.5C762.5 693 793 705 803.5 710C814 715 841.5 724.5 845.5 724.5C849.5 724.5 875 723.5 889 700.5C900.2 682.1 887.333 668.167 879.5 663.5C868.667 658.667 842.8 647.3 826 640.5C809.2 633.7 781 623 769 618.5C766.167 606.833 759.7 581 756.5 571C752.5 558.5 735.5 531.5 718.5 507.5C701.5 483.5 644.5 436.5 615 422.5Z" fill="#000706"/>
<path d="M418.5 355.5C397.3 360.7 382.667 373.5 379 379L388 406L418.5 424.5L617 529L631 515.5C622.5 498.5 601 462.5 560.5 424.5C522 385.5 477 365.5 473 363.5C469 361.5 445 349 418.5 355.5Z" fill="#D69550"/>
<path d="M640.5 680.5C635.7 687.3 622.833 697.667 617 702L626.5 683L648 667.5C647.5 669 645.3 673.7 640.5 680.5Z" fill="#004A39"/>
<path d="M631 515.5L617 529L619 541L632.5 577.5L638.5 594L768 663C771.167 671.667 778.4 688.7 782 687.5C786.5 686 790.5 679.5 794 675.5C797.5 671.5 799.5 664.5 800 651C800.5 637.5 791 631.5 785.5 625.5C780 619.5 767 616 758.5 614.5C750 613 726 609 702.5 603.5C683.7 599.1 664 576.667 656.5 566L631 515.5Z" fill="#004A39"/>
<mask id="mask0_14_810" style="mask-type:alpha" maskUnits="userSpaceOnUse" x="617" y="515" width="184" height="173">
<path d="M631 515.5L617 529L619 541L632.5 577.5L638.5 594L768 663C771.167 671.667 778.4 688.7 782 687.5C786.5 686 790.5 679.5 794 675.5C797.5 671.5 799.5 664.5 800 651C800.5 637.5 791 631.5 785.5 625.5C780 619.5 767 616 758.5 614.5C750 613 726 609 702.5 603.5C683.7 599.1 664 576.667 656.5 566L631 515.5Z" fill="#004A39"/>
</mask>
<g mask="url(#mask0_14_810)">
<path d="M784 624.5L777.5 639.5C778.667 640.167 782.1 642.8 786.5 648C792 654.5 792.5 663 793 665.5C793.5 668 792 675.5 790.5 678.5C789 681.5 780 687 783 687C786 687 798.5 678.5 799.5 678C800.3 677.6 803.833 672.833 805.5 670.5L803 652.5C801.833 646.833 799.5 635.3 799.5 634.5C799.5 633.7 789.167 627.5 784 624.5Z" fill="#00261A"/>
</g>
<path d="M617 702V529L626 545.5C630.833 555.333 641.9 577.2 647.5 586C653.1 594.8 666.833 605.667 673 610C677.667 613.833 694.2 622.2 723 625C759 628.5 768.5 636 771.5 638C774.5 640 795.5 652 789 676C782.5 700 753.5 689.5 750 688.5C746.5 687.5 696 662.5 668.5 662.5C646.5 662.5 625 688.833 617 702Z" fill="#FF3320"/>
<path d="M617 702V529C587.8 461.4 499.5 396 461.5 377.5C433.667 361 375 345.9 363 417.5C348 507 403 611.5 407.5 619C412 626.5 446 694 514.5 718.5C569.3 738.1 605.666 715.667 617 702Z" fill="#FFFFDE"/>
<circle cx="453.5" cy="46.5" r="46.5" fill="#FF3220"/>
</svg>
