<svg width="1001" height="1003" viewBox="0 0 1001 1003" fill="none" xmlns="http://www.w3.org/2000/svg">
<path d="M576 793.5C512 810.3 457.667 790.167 438.5 778L548.5 393.5C584.833 408.167 659.9 438.5 669.5 442.5C681.5 447.5 721.5 463.5 744.5 501.5C767.7 528.3 769.833 588.333 768 615L769 616L779 617.5C809.5 630.167 870.8 655.6 872 656C873.5 656.5 911 667.5 886 705.5C856.5 738.5 835.5 727 821.5 722.5C807.5 718 787 705.5 759 702.5C731 699.5 705 722 698.5 727C692 732 656 772.5 576 793.5Z" fill="#000706"/>
<path d="M609 437.5C631 460.7 645.167 495.5 649.5 510C638.5 579 614.6 719.8 607 731C597.5 745 570.5 765 540 779C509.5 793 459.5 785.5 453 784C446.5 782.5 434 777.5 407 758.5C385.4 743.3 384.667 730.167 387 725.5L363.5 560.5C371.667 506.167 403.7 395.1 466.5 385.5C545 373.5 581.5 408.5 609 437.5Z" fill="#D69550"/>
<path d="M639.5 510C638.3 510 637.667 511.667 637.5 512.5L596.5 727C596.5 728 596.6 730.1 597 730.5C597.4 730.9 603.833 731 607 731C610.333 727.5 620.9 715.3 636.5 694.5C656 668.5 682 668 688 669C692.8 669.8 734.333 686.333 754.5 694.5C765.667 696 790 692.8 798 668C808 637 784.5 620 779 617.5C773.5 615 769.5 612 721 609.5C683.4 605.5 667.667 577.5 664.5 564L649.5 510H639.5Z" fill="#004A39"/>
<mask id="mask0_14_811" style="mask-type:alpha" maskUnits="userSpaceOnUse" x="596" y="510" width="205" height="221">
<path d="M639.5 510C638.3 510 637.667 511.667 637.5 512.5L596.5 727C596.5 728 596.6 730.1 597 730.5C597.4 730.9 603.833 731 607 731C610.333 727.5 620.9 715.3 636.5 694.5C656 668.5 682 668 688 669C692.8 669.8 734.333 686.333 754.5 694.5C765.667 696 790 692.8 798 668C808 637 784.5 620 779 617.5C773.5 615 769.5 612 721 609.5C683.4 605.5 667.667 577.5 664.5 564L649.5 510H639.5Z" fill="#004A39"/>
</mask>
<g mask="url(#mask0_14_811)">
<path d="M788.5 624.5C787.3 625.7 783.667 625.667 782 625.5C795 644 797 655 787.5 675.5C779.9 691.9 758.333 693.333 748.5 692L753.5 699.5H780L811 681L808 634C802 630.333 789.7 623.3 788.5 624.5Z" fill="#00261A"/>
</g>
<path d="M631.5 684.5L596.5 727L637.5 512.5C640.5 522.833 647.6 547.7 652 564.5C656 585.5 683 606.5 692.5 609C702 611.5 734 615 754 616C774 617 780.5 625 783 628.5C785.5 632 799.5 647 787 672C774.5 697 754 691.5 749 691C744 690.5 716 678.5 702 673.5C688 668.5 679 666.5 663.5 668C651.1 669.2 637 679.5 631.5 684.5Z" fill="#FF3320"/>
<path d="M535 393.5C601.8 425.1 631.167 486 637.5 512.5L596.5 727C581.5 751 509.5 803.5 440 780.5C370.5 757.5 353 686 347.5 652.5C342 619 342.5 580 353 528C361.4 486.4 382.5 451.333 392 439C399 429 444 358 535 393.5Z" fill="white"/>
<circle cx="453.5" cy="46.5" r="46.5" fill="#FF3220"/>
</svg>
