<svg width="1001" height="1004" viewBox="0 0 1001 1004" fill="none" xmlns="http://www.w3.org/2000/svg">
<path d="M346.5 790.5C338.1 787.7 317 770.5 307.5 766L608.5 521.5C620.167 526.167 653.6 539.6 660 542C668 545 703 560.5 707 563C711 565.5 726 576 734 586.5C740.367 594.856 746.107 613.307 748.463 620.882L748.5 621L783 626.5L810 638C824.333 643.667 856.6 656.6 871 663C888.767 670.896 890.945 676.357 891.961 678.901L892 679C893 681.5 898.5 692.5 881 712C863.5 731.5 828.5 721.5 806 715.5C783.5 709.5 777 708 751 708C725 708 702 725.5 689 735C676 744.5 601 793 500.5 804.5C402 822.5 357 794 346.5 790.5Z" fill="#000706"/>
<path d="M577.5 698.5L583.5 719C589 715.5 603.5 703.7 617.5 694.5C635 683 638.5 680.5 658 676C677.5 671.5 693.5 675 697.5 676C700.7 676.8 729.667 684 743.5 687.5C746.167 688.5 755.2 690.1 770 688.5C781.516 687.255 790.55 679.572 795.641 673.554C798.028 670.732 798.947 667.033 798.856 663.338C798.691 656.604 798.5 648.029 798.5 645C798.5 641 796.167 636.333 795.5 635C794.333 634.167 793.3 633.7 794.5 634.5C796 635.5 796.5 638.5 796.5 641.5C796.5 644.5 797 644.5 795.5 650.5C794 656.5 787 660.5 780 664.5C773 668.5 759.5 668.5 757 669C754.5 669.5 722 661.5 700.5 655.5C679 649.5 674 651.5 655.5 653.5C637 655.5 625 663 621 665.5C617.8 667.5 591 689.5 577.5 698.5Z" fill="#004A39"/>
<path d="M768.5 688V672C776 670.5 785.5 665 790.5 660.5C795.5 656 796.5 651 796.5 647C797.3 644.2 795.833 638.167 795 635.5C794.667 635 794.3 634.2 795.5 635C796.7 635.8 798 642 798.5 645V663.5C798.5 676.5 778 687.5 768.5 688Z" fill="#00261A"/>
<path d="M661 592.5C660.2 590.5 653.5 570.667 650.5 562L577.5 698.5C584.833 694 601.3 682.4 610.5 676C622 668 631.5 663 636.5 661C641.5 659 656 654.5 670.5 654C685 653.5 697.5 657 702 658.5C705.6 659.7 734.833 666.5 749 670C752 670.5 761.1 671.1 769.5 669.5C798.439 663.014 797.504 648.063 797.003 640.051L797 640C796.5 632 782.5 625 778.5 623.5C774.5 622 754 621 749 620.5C744 620 716 618.5 695.5 616C675 613.5 662 595 661 592.5Z" fill="#FF3320"/>
<path d="M577.5 698.5L583.5 719C530.3 753.4 455 776.5 424 781.5C414.5 783 389 788.5 364.5 788.5C343.5 789.375 330 785.218 320 780C308.5 774 297.5 758 293.5 752C289.5 746 290.5 735.5 290.5 728.5C292 725 295.333 719.833 295.5 717C295.667 722 298.1 733.8 306.5 741C317 750 331.5 756.5 336.5 757C341.5 757.5 378 756.5 406.5 752C435 747.5 466.5 738.5 474 736.5C481.5 734.5 532 716 541 711.5C548.2 707.9 568.666 702.5 577.5 698.5Z" fill="#D69550"/>
<path d="M650.5 562L577.5 698.5C566 704.5 539.8 721.6 519 730C493 740.5 451.5 752.5 448.5 753.5C445.5 754.5 400 770.5 355.5 769.5C311 768.5 301.5 759 297.5 756C295 754.125 287.5 741 290 725.5C292.5 710 307 675 319 661.5C331 648 348.646 616.119 404.5 572.5C457 531.5 514 515 531.5 513.5C549 512 576.5 508 610.5 521.5C637.7 532.3 648.333 553.667 650.5 562Z" fill="#FFFFDE"/>
<circle cx="453.5" cy="46.5" r="46.5" fill="#FF3220"/>
</svg>
