<svg width="1001" height="953" viewBox="0 0 1001 953" fill="none" xmlns="http://www.w3.org/2000/svg">
<path d="M346 722.5C337.6 719.7 325.5 702 316 697.5L616 474C627.667 478.667 656.6 491.6 663 494C671 497 705 512.5 709 515C713 517.5 725 527 733 537.5C739.4 545.9 746.167 563 748.5 570.5L783 575.5L810 587C824.333 592.667 856.6 605.6 871 612C888.767 619.896 890.945 625.357 891.961 627.901L892 628C893 630.5 898.5 641.5 881 661C863.5 680.5 828.5 670.5 806 664.5C783.5 658.5 778 656.5 752 656.5C726 656.5 702.5 671 689.5 680.5C676.5 690 606 731.5 515 740.5C409 755.5 356.5 726 346 722.5Z" fill="#000706"/>
<path d="M576 642.5L581.5 661.5C587 658 601.355 648.476 615.5 639.5C635.779 626.632 649.816 623.39 663 622C682.902 619.901 694 623.5 698 624.5C701.2 625.3 729.667 632.5 743.5 636C746.167 637 755.2 638.6 770 637C781.492 635.758 790.512 628.406 795.608 622.528C798.03 619.735 798.947 616.033 798.856 612.338C798.691 605.604 798.5 597.029 798.5 594C798.5 590 796.167 585.333 795.5 584C794.333 583.167 793.3 582.7 794.5 583.5C796 584.5 796.5 587.5 796.5 590.5C796.5 593.5 797 593.5 795.5 599.5C794 605.5 787 609.5 780 613.5C773 617.5 759.5 617.5 757 618C754.5 618.5 722 610.5 700.5 604.5C679 598.5 674 600.5 655.5 602.5C637 604.5 624.5 610.5 620.5 613C617.3 615 589.5 633.5 576 642.5Z" fill="#004A39"/>
<path d="M769.5 637L769 620C776.5 618.5 785.5 614 790.5 609.5C795.5 605 796.5 600 796.5 596C797.3 593.2 795.833 587.167 795 584.5C794.667 584 794.3 583.2 795.5 584C796.7 584.8 798 591 798.5 594V612.5C800 625.5 779 636.5 769.5 637Z" fill="#00261A"/>
<path d="M661 541.5C660.2 539.5 654 521.667 651 513L576 642.5C583.333 638 599.8 627.4 609 621C620.5 613 630.5 609 635.5 607C640.5 605 656.5 602 671 601.5C685.5 601 698 604.5 702.5 606C706.1 607.2 735.333 614.5 749.5 618C752.5 618.5 760.6 619.1 769 617.5C798 611 797.5 597 797 589C796.5 581 782.5 574 778.5 572.5C774.5 571 754 570.5 749 570C744 569.5 716 567.5 695.5 565C675 562.5 662 544 661 541.5Z" fill="#FF3320"/>
<circle cx="453.5" cy="187.5" r="46.5" fill="#FF3220"/>
<path d="M576 642.5L581.5 661.5C528.3 695.9 452 709.5 421 714.5C411.5 717 391.5 717 367.5 718C344.536 716.719 330.063 715.164 318 710C306.075 704.896 299.5 701.5 294 695C290 689 283 679.5 282 676.5C281.5 675 274.5 663.5 276.5 660C279 665.5 285.1 674.8 293.5 682C304 691 332 695.5 337 696C342 696.5 379 698 407.5 693.5C436 689 465.5 682.5 473 680.5C480.5 678.5 530 663 539 658.5C546.2 654.9 567.167 646.5 576 642.5Z" fill="#D69550"/>
<path d="M651 513L576 642.5C564.5 648.5 536.3 661.1 515.5 669.5C489.5 680 442 689 439 690C436 691 386 699.5 341 697C296.557 694.531 279.667 672.5 277.5 666C275.667 660.5 274 652 276.5 636.5C281 619.5 294 597.5 306 584C318 570.5 338.5 544.5 397 504.5C455.5 465.5 515.5 460 533 458.5C550.5 457 575 457 609 470.5C636.2 481.3 648.833 504.666 651 513Z" fill="#FFFFDE"/>
<ellipse cx="584.285" cy="242.507" rx="37.1063" ry="48.454" transform="rotate(57.0088 584.285 242.507)" fill="black" fill-opacity="0.4"/>
</svg>
