<svg width="1001" height="953" viewBox="0 0 1001 953" fill="none" xmlns="http://www.w3.org/2000/svg">
<path d="M346.5 733.5C338.1 730.7 307.5 721 307.5 706L598.5 472.5C610.167 477.167 651.6 494.1 658 496.5C666 499.5 703 515.5 707 518C711 520.5 724 529 732 539.5C738.4 547.9 744.167 563.5 746.5 571L783 575.5L810 587C824.333 592.667 856.6 605.6 871 612C888.767 619.896 890.945 625.357 891.961 627.901L892 628C893 630.5 898.5 641.5 881 661C863.5 680.5 828.5 670.5 806 664.5C783.5 658.5 777 657 751 657C725 657 701 674 688 683.5C675 693 599 736 498.5 747.5C406 762 357 737 346.5 733.5Z" fill="#000706"/>
<path d="M577 643.5L582 664C587.5 660.5 603 650.2 617 641C634.5 629.5 638.5 628.5 658 624C677.5 619.5 694 623.5 698 624.5C701.2 625.3 729.667 633 743.5 636.5C746.167 637.5 755.2 639.1 770 637.5C781.516 636.255 790.55 628.572 795.641 622.554C798.028 619.732 798.947 616.033 798.856 612.338C798.691 605.604 798.5 597.029 798.5 594C798.5 590 796.167 585.333 795.5 584C794.333 583.167 793.3 582.7 794.5 583.5C796 584.5 796.5 587.5 796.5 590.5C796.5 593.5 797 593.5 795.5 599.5C794 605.5 787 609.5 780 613.5C773 617.5 759.5 617.5 757 618C754.5 618.5 722 610.5 700.5 604.5C679 598.5 674 600.5 655.5 602.5C637 604.5 625 612 621 614.5C617.8 616.5 590.5 634.5 577 643.5Z" fill="#004A39"/>
<path d="M768.5 637.5V621C776 619.5 785.5 614 790.5 609.5C795.5 605 796.5 600 796.5 596C797.3 593.2 795.833 587.167 795 584.5C794.667 584 794.3 583.2 795.5 584C796.7 584.8 798 591 798.5 594C798.5 594.167 798.026 598.108 798.5 612.5C800.5 625 778.385 637.639 768.5 637.5Z" fill="#00261A"/>
<path d="M660.5 543.5C660.016 541.401 653 521.667 650 513L577 643.5C584.333 639 600.3 628.9 609.5 622.5C621 614.5 632 610.5 637 608.5C642 606.5 656 602 670.5 601.5C685 601 699 605 703.5 606.5C707.1 607.7 735.333 614.5 749.5 618C752.5 618.5 761.1 618.6 769.5 617C798.348 610.534 797.51 597.141 797.008 589.126L797 589C796.5 581 782.5 574 778.5 572.5C774.5 571 754 570 749 569.5C744 569 716.5 568 696 565.5C675.5 563 662 550 660.5 543.5Z" fill="#FF3320"/>
<path d="M577 643.5L582 664C528 697.5 454 716.5 423 721.5C413.5 723 389.5 727.5 365 727.5C344.704 727.219 324.341 724.615 313.5 720C302 714 292.5 699 288.5 693C284.5 687 285.5 680 285.5 673C287 669.5 295.333 668.833 295.5 666C295.666 671 298.1 682.8 306.5 690C317 699 331.5 705.5 336.5 706C341.5 706.5 378 705.5 406.5 701C435 696.5 466.5 687.5 474 685.5C481.5 683.5 532 665 541 660.5C548.2 656.9 568.166 647.5 577 643.5Z" fill="#D69550"/>
<path d="M650 513L577 643.5C564.5 651.5 538.3 663.6 517.5 672C491.5 682.5 451 692.5 448 693.5C445 694.5 410.5 704.5 364 707C315 711 300.5 699 296.5 696C294 694.125 281.5 691 281.5 666C284 650.5 296.5 621 308.5 607.5C320.5 594 336.5 566 395 523.5C447.5 482.5 507 468.5 524.5 467C542 465.5 576 459.5 609 474.5C636.2 485.3 647.833 504.667 650 513Z" fill="#FFFFDE"/>
<ellipse cx="627.127" cy="161.92" rx="36.6592" ry="46.0614" transform="rotate(96.8903 627.127 161.92)" fill="black" fill-opacity="0.2"/>
<circle cx="453.5" cy="80.5" r="46.5" fill="#FF3220"/>
</svg>
