<svg width="1001" height="953" viewBox="0 0 1001 953" fill="none" xmlns="http://www.w3.org/2000/svg">
<path d="M349 708C340.6 705.2 330 696.5 320.5 692L602.5 463C614.167 467.667 657.1 486.6 663.5 489C671.5 492 705.5 507.5 709.5 510C713.5 512.5 725.5 522 733.5 532.5C739.9 540.9 748.667 564 751 571.5L783 575.5L810 587C824.333 592.667 856.6 605.6 871 612C888.767 619.896 890.945 625.357 891.961 627.901L892 628C893 630.5 898.5 641.5 881 661C863.5 680.5 828.5 670.5 806 664.5C783.5 658.5 778.5 655 752.5 655C726.5 655 707 665.5 694 675C681 684.5 610.5 726 519.5 735C403.5 746.473 359.5 711.5 349 708Z" fill="#000706"/>
<path d="M577 638.5L579.5 659C585 655.5 600.855 646.476 615 637.5C635.279 624.632 649.316 621.89 662.5 620.5C682.402 618.401 694.5 622.5 698.5 623.5C701.7 624.3 730.167 632.5 744 636C746.667 637 755.2 638.6 770 637C781.479 635.759 789.89 628.121 794.72 622.112C797.036 619.231 797.944 615.533 797.93 611.836C797.905 605.254 798 597.018 798 594C798 590 796.167 585.333 795.5 584C794.333 583.167 793.3 582.7 794.5 583.5C796 584.5 796.5 587.5 796.5 590.5C796.5 593.5 797 593.5 795.5 599.5C794 605.5 787 609.5 780 613.5C773 617.5 759.5 617.5 757 618C754.5 618.5 722 610.5 700.5 604.5C679 598.5 673.5 598.5 655 600.5C636.5 602.5 624 609 620 611.5C616.8 613.5 590.5 629.5 577 638.5Z" fill="#004A39"/>
<path d="M768.5 636.5V619C776 617.5 785.5 614 790.5 609.5C795.5 605 796.5 600 796.5 596C797.3 593.2 795.833 587.167 795 584.5C794.667 584 794.3 583.2 795.5 584C796.7 584.8 798 591 798.5 594V612.5C798.5 626 778 636 768.5 636.5Z" fill="#00261A"/>
<path d="M662 541C661.2 539 653.5 517.167 650.5 508.5L577 638.5C584.333 634 599.8 625.4 609 619C620.5 611 631 607 636 605C641 603 656 600.5 670.5 600C685 599.5 698 604.5 702.5 606C706.1 607.2 735.333 614.5 749.5 618C752.5 618.5 760.6 619.1 769 617.5C798 611 797.5 597 797 589C796.5 581 782.5 574 778.5 572.5C774.5 571 754 570 749 569.5C744 569 716 566.5 695.5 564C677 560.5 663 543.5 662 541Z" fill="#FF3320"/>
<circle cx="453.5" cy="275.5" r="46.5" fill="#FF3220"/>
<path d="M577 638.5L579.5 659C538 687.5 444.5 704 421 705C411.5 706.532 385 706.253 371.5 705.5C348.536 704.219 340.143 702.512 327.5 699C318.5 696.5 310 693 300.5 687.5C296 684 289 678.5 285.5 674.5C284.459 673.31 267 640 269 636.5C271.5 642 287.6 661.8 296 669C306.5 678 333 682 338 682.5C343 683 382 687 406.5 685C435.257 682.652 464 679 471.5 677C479 675 529 661.5 538 657C545.2 653.4 568 643 577 638.5Z" fill="#D69550"/>
<path d="M650.5 508.5L577 638.5C565.5 644.5 536.5 659.5 514 666C486 675.5 449.5 682 438.5 683.5C435.5 684.5 392.5 688.5 347.5 684.5C317 681 294 670.5 286.5 664C279 657.5 274 653.5 268.5 637C265.062 620.521 273.5 588 289 571C305 550 329.433 521.546 384 490C440.5 454.5 513 449 531.5 449C561.199 449.046 580.002 452.054 609 465.5C635.55 477.811 648.333 500.167 650.5 508.5Z" fill="#FFFFDE"/>
<ellipse cx="546.846" cy="314.507" rx="37.1063" ry="48.454" transform="rotate(57.0088 546.846 314.507)" fill="black" fill-opacity="0.9"/>
</svg>
