<svg width="1001" height="953" viewBox="0 0 1001 953" fill="none" xmlns="http://www.w3.org/2000/svg">
<path d="M391.5 661C380 658 328.5 631.5 319 627L576.5 422C588.167 426.667 659 453 665.5 458C673.5 461 702.5 477 712 486C719.2 490.5 736 507.5 741.5 520.5C747.9 528.9 756.167 562.5 758.5 570L783 574L810 586C824.333 591.667 856.6 605.6 871 612C888.767 619.896 890.945 625.357 891.961 627.901L892 628C893 630.5 898.5 641.5 881 661C863.5 680.5 829 670.5 810 663.5C787.5 657.5 778.5 649.5 752.5 649.5C726.5 649.5 703.5 659 690.5 668.5C677.5 678 633 703 546.5 703C453.5 696.5 429.5 674.5 391.5 661Z" fill="#000706"/>
<path d="M578 625.5V644.5C583.5 641 598.855 634.976 613 626C636 614.5 644.5 614.5 659.5 614.5C686 614.5 695.5 619.5 699.5 620.5C702.7 621.3 730.5 630.5 744.5 635C747.167 636 755.2 638.6 770 637C781.479 635.759 789.89 628.121 794.72 622.112C797.036 619.231 797.944 615.533 797.93 611.836C797.905 605.254 798 597.018 798 594C798 590 796.167 585.333 795.5 584C794.333 583.167 793.3 582.7 794.5 583.5C796 584.5 796.5 587.5 796.5 590.5C796.5 593.5 797 593.5 795.5 599.5C794 605.5 787 609.5 780 613.5C773 617.5 759 616 756.5 616.5C754 617 722 606 700.5 600C679 594 672.5 590 654 592C635.5 594 620 601 616 603.5C612.8 605.5 591.5 616.5 578 625.5Z" fill="#004A39"/>
<path d="M768.5 636.5V619C776 617.5 785.5 614 790.5 609.5C795.5 605 796.5 600 796.5 596C797.3 593.2 795.833 587.167 795 584.5C794.667 584 794.3 583.2 795.5 584C796.7 584.8 798 589.5 798.5 592.5V612.5C798.5 626 778 636 768.5 636.5Z" fill="#00261A"/>
<path d="M666.5 538C663.5 535 654 505.5 652 495.5L578 625.5C585.333 621 597.5 614.5 607.5 609.5C620 602 630.5 599.5 635.5 597.5C640.5 595.5 653 595 667.5 594.5C682 594 700.5 601.5 705 603C708.6 604.2 736.5 614 749.5 618C752.5 618.5 760.6 619.1 769 617.5C798 611 797.5 597 797 589C796.5 581 782.5 574 778.5 572.5C774.5 571 754 568 749 567.5C744 567 717 562.5 696.5 558.5C681.5 554 669.5 543 666.5 538Z" fill="#FF3320"/>
<path d="M578 625.5V644.5C532 661 512 667.5 459 667.5C448 667.968 418.5 662.5 404 661C399.5 660.534 367.5 649.111 354.5 645.5C346.55 645.379 310.631 623.96 300 614C294.434 611.876 267.833 582.001 263.5 569C258 559.832 251 515 257.5 507.5C260 513 301.1 591.8 309.5 599C320 608 345.5 622 350.5 622.5C355.5 623 392 644.5 416.5 642.5C445.257 640.152 467.5 647.5 475 645.5C482.5 643.5 521 643.5 530 639C537.2 635.4 569 630 578 625.5Z" fill="#D69550"/>
<path d="M652 495.5L578 625.5C566.5 631.5 533.5 642.5 507.5 646C485 650.133 459 647.5 445.5 647.5C429.5 647.5 423.5 646.5 390.5 639.5C375 635.273 350 627.5 342 621.5C336 618.5 318 609.5 298.5 592.5C285 579 263.5 559.5 258 522.5C253 467.5 285.5 435 349 407.5C435 375 517.5 401 538 405.5C572.5 415 602.5 434 614 444.5C638.5 460.454 649.833 487.167 652 495.5Z" fill="#FFFFDE"/>
<path d="M538.04 439.5C526.04 454.2 499 465.5 479 459.5C476.621 460.66 438.591 447.167 431.5 438C424.438 427.121 427.833 402.189 452 386.5C476 376.5 498.5 374.5 515 376.5C515.163 376.752 530.54 379.811 538.04 385.811C547.54 395.811 558.04 415 538.04 439.5Z" fill="black" fill-opacity="0.9"/>
<circle cx="453.5" cy="400.5" r="46.5" fill="#FF3220"/>
</svg>
