<svg width="1001" height="953" viewBox="0 0 1001 953" fill="none" xmlns="http://www.w3.org/2000/svg">
<path d="M402 643C390.5 640 348 600 338.5 595.5L550 392C561.667 396.667 662.5 437.5 669 442.5C677 445.5 706 468.5 715.5 477.5C722.7 482 741.5 505 747 518C753.4 526.4 758.167 562.5 760.5 570L783 574L810 586C824.333 591.667 856.6 605.6 871 612C888.767 619.896 890.945 625.357 891.961 627.901L892 628C893 630.5 898.5 641.5 881 661C863.5 680.5 829 670.5 810 663.5C787.5 657.5 778 647.5 752 647.5C726 647.5 701 656.5 688 666C669.5 676.5 624.5 697.718 557 693C494.5 685.5 440 656.5 402 643Z" fill="#000706"/>
<path d="M578 620V638.5C583.5 635 594.5 631 609 622.5C632 611 643 611.5 658 611.5C684.5 611.5 696.5 618.5 700.5 619.5C703.7 620.3 730.5 630.5 744.5 635C747.167 636 755.2 638.6 770 637C781.479 635.759 789.89 628.121 794.72 622.112C797.036 619.231 797.944 615.533 797.93 611.836C797.905 605.254 798 597.018 798 594C798 590 796.167 585.333 795.5 584C794.333 583.167 793.3 582.7 794.5 583.5C796 584.5 796.5 587.5 796.5 590.5C796.5 593.5 797 593.5 795.5 599.5C794 605.5 787 609.5 780 613.5C773 617.5 759 616 756.5 616.5C754 617 722 606 700.5 600C679 594 672.5 588.5 654 590.5C635.5 592.5 619 598.5 615 601C611.8 603 591.5 611 578 620Z" fill="#004A39"/>
<path d="M768.5 636.5V619.5C776 618 786 614.5 791 610C796 605.5 796.5 600 796.5 596C797.3 593.2 795.833 587.167 795 584.5C794.667 584 794.3 583.2 795.5 584C796.7 584.8 797.5 589.5 798 592.5C798 592.667 798.5 598.1 798.5 612.5C798.5 626 778 636 768.5 636.5Z" fill="#00261A"/>
<path d="M669.5 536C666.5 533 655 501 653.5 489.5L578 620C585.333 615.5 596.5 612 606.5 607C619 599.5 630.5 596.5 635.5 594.5C640.5 592.5 653 592.5 667.5 592C682 591.5 701 600.5 705.5 602C709.1 603.2 736.5 614 749.5 618C752.5 618.5 760.6 619.1 769 617.5C798 611 797.5 597 797 589C796.5 581 782.5 574 778.5 572.5C774.5 571 754.5 567.5 749.5 567C744.5 566.5 717.5 562 697.5 557C682.5 552.5 672.5 541 669.5 536Z" fill="#FF3320"/>
<path d="M578 620V638.5C548.5 650.5 538.5 651 490 656C479 656.468 442 656 416 646C411.5 645.534 383 637 367.5 627C359.55 626.879 324.632 600.96 314 591C301 582.5 268.5 540 264.5 514.5C259.001 505.332 253.5 463 277 426C279.501 431.5 318.6 569.3 327 576.5C337.5 585.5 354 598.5 359 599C364 599.5 401.5 629 426 627C454.758 624.652 467 635 474.5 633C482 631 519.5 637.5 528.5 633C535.7 629.4 569 624.5 578 620Z" fill="#D69550"/>
<path d="M653.5 489.5L578 620C566.5 626 549 631 523 634.5C500.5 638.633 469.5 637.5 455.5 634.5C439.5 634.5 427.5 629.955 407.499 624.5C391.999 620.273 367.999 609 359.999 603C353.999 600 338 590 318.499 573L318.498 572.999C304.998 559.498 275.499 529.999 270 493C261.675 437 276 400.5 339.5 373C425.5 340.5 516 375 537 385.5C571.5 398 602 422 613.5 432.5C638 450.5 651.333 481.167 653.5 489.5Z" fill="#FFFFDE"/>
<ellipse cx="546.845" cy="314.507" rx="37.1063" ry="48.454" transform="rotate(57.0088 546.845 314.507)" fill="black" fill-opacity="0.9"/>
<circle cx="453.5" cy="275.5" r="46.5" fill="#FF3220"/>
</svg>
