<svg width="1001" height="953" viewBox="0 0 1001 953" fill="none" xmlns="http://www.w3.org/2000/svg">
<path d="M399 619.5C387.5 616.5 368.5 580.5 359 576L526.5 359C538.167 363.667 662 413.5 670 423C686 429.5 715.5 457.5 721.5 466.5C728.7 471 746 500.5 751.5 513.5C757 522.5 763.667 563.5 766 571L783 574L810 586C824.333 591.667 856.6 605.6 871 612C888.767 619.896 890.945 625.357 891.961 627.901L892 628C893 630.5 898.5 641.5 881 661C859.5 679.5 831 671.5 811 662.5C788.5 656.5 777.5 645 751.5 645C724 644.5 698 655 685 664.5C666.5 675 624 691.5 557 680.5C512 671.5 437 633 399 619.5Z" fill="#000706"/>
<path d="M580.5 614.5L577.5 632.5C583 629 596.5 623.5 609 618C632 607 642.5 608 657.5 608C683 610 698.5 618 702.5 619C705.7 619.8 730.5 630.5 744.5 635C747.167 636 755.2 638.6 770 637C781.479 635.759 789.89 628.121 794.72 622.112C797.036 619.231 797.944 615.533 797.93 611.836C797.905 605.254 798 597.018 798 594C798 590 796.167 585.333 795.5 584C794.333 583.167 793.3 582.7 794.5 583.5C796 584.5 796.5 587.5 796.5 590.5C796.5 593.5 797 593.5 795.5 599.5C794 605.5 787 609.5 780 613.5C773 617.5 759 616 756.5 616.5C754 617 724 601.5 702.5 595.5C681 589.5 672 585 653.5 587C635 589 616.5 593 612.5 595.5C609.3 597.5 594 605.5 580.5 614.5Z" fill="#004A39"/>
<path d="M768.5 636.5V619.5C776 618 786 614.5 791 610C796 605.5 796.5 600 796.5 596C797.3 593.2 795.833 587.167 795 584.5C794.667 584 794.3 583.2 795.5 584C796.7 584.8 797.5 589.5 798 592.5C798 592.667 798.5 598.1 798.5 612.5C798.5 626 778 636 768.5 636.5Z" fill="#00261A"/>
<path d="M671.5 534.5C665.5 529.5 657 495 655 483.5L580.5 614.5C587.833 610 597.5 607 607.5 602C620.5 595.5 631.5 591.346 637 590.5C643.5 589.5 653 590 667.5 589.5C682.5 590.5 702.5 599.5 707 601C710.6 602.2 736.5 614 749.5 618C752.5 618.5 760.6 619.1 769 617.5C798 611 797.5 597 797 589C796.5 581 782.5 574 778.5 572.5C774.5 571 754.5 567.5 749.5 567C744.5 566.5 719 561.35 699.5 555.5C686.5 549.5 674.5 539.5 671.5 534.5Z" fill="#FF3320"/>
<path d="M580.499 614.5L577.499 632.5C550 643.5 538.5 642.5 504.5 645C493.5 645.468 471.5 643.5 447 637.5C442.499 637.034 404.999 624.5 389.499 614.5C381.549 614.379 343.999 586.5 329.999 569C316.999 560.5 282.999 511.5 278.5 479C266 438.5 275.999 393 309.5 362C312 367.5 332.599 543.3 340.999 550.5C351.499 559.5 374 581 379 581.5C387.5 587.5 400.499 600.5 428.999 608.5C442.499 614.5 466.499 618.5 476.499 621.5C485.499 621.5 519.999 626 528.999 621.5C536.199 617.9 571.499 619 580.499 614.5Z" fill="#D69550"/>
<path d="M655 483.5L580.5 614.5C569 620.5 551 623.5 525 627C502.5 631.133 461.5 622.5 447.5 619.5C433.5 616.5 413 606 393 596C377.5 591.773 339 556.5 331 544.5C325 541.5 304 512 294 479.5C288.775 466.105 282 444.5 287 410C300 350.5 345.5 332 370.5 329.5C455.5 315 527.5 359 548.5 369.5C581.5 386 611.5 418.5 623 429C646 452 652.833 475.167 655 483.5Z" fill="#FFFFDE"/>
<ellipse cx="583.845" cy="240.507" rx="37.1063" ry="48.454" transform="rotate(57.0088 583.845 240.507)" fill="black" fill-opacity="0.4"/>
<circle cx="453.5" cy="187.5" r="46.5" fill="#FF3220"/>
</svg>
