<svg width="37" height="39" viewBox="0 0 37 39" fill="none" xmlns="http://www.w3.org/2000/svg">
<path d="M10.3333 28.75H10.5703C10.8498 27.401 11.342 26.1605 12.0469 25.0283C12.7517 23.8962 13.6085 22.9206 14.6172 22.1016C15.6259 21.2826 16.7622 20.6442 18.026 20.1865C19.2899 19.7288 20.6146 19.5 22 19.5C23.0694 19.5 24.1024 19.6385 25.099 19.9155C26.0955 20.1925 27.0252 20.578 27.888 21.0718C28.7509 21.5656 29.5347 22.1678 30.2396 22.8784C30.9444 23.589 31.5521 24.3719 32.0625 25.2271C32.5729 26.0822 32.9679 27.0036 33.2474 27.9912C33.5269 28.9788 33.6667 30.0026 33.6667 31.0625H36C36 29.6172 35.7873 28.2261 35.362 26.8892C34.9366 25.5522 34.3229 24.3177 33.5208 23.1855C32.7188 22.0534 31.7708 21.0477 30.6771 20.1685C29.5833 19.2892 28.3438 18.5967 26.9583 18.0908C28.3316 17.1995 29.401 16.0794 30.1667 14.7305C30.9323 13.3815 31.3212 11.888 31.3333 10.25C31.3333 8.97331 31.0903 7.7749 30.6042 6.65479C30.1181 5.53467 29.4557 4.55306 28.6172 3.70996C27.7786 2.86686 26.7882 2.20443 25.6458 1.72266C24.5035 1.24089 23.2882 1 22 1C20.7118 1 19.5026 1.24089 18.3724 1.72266C17.2422 2.20443 16.2517 2.86084 15.401 3.69189C14.5503 4.52295 13.8819 5.50456 13.3958 6.63672C12.9097 7.76888 12.6667 8.97331 12.6667 10.25C12.6667 11.0449 12.7639 11.8218 12.9583 12.5806C13.1528 13.3394 13.4444 14.056 13.8333 14.7305C14.2222 15.4049 14.678 16.0252 15.2005 16.5913C15.7231 17.1574 16.3368 17.6572 17.0417 18.0908C15.6806 18.6087 14.4288 19.3193 13.2865 20.2227C12.1441 21.126 11.1597 22.1859 10.3333 23.4023V28.75ZM29 10.25C29 11.2135 28.8177 12.1108 28.4531 12.9419C28.0885 13.7729 27.5903 14.5076 26.9583 15.146C26.3264 15.7843 25.5851 16.2842 24.7344 16.6455C23.8837 17.0068 22.9722 17.1875 22 17.1875C21.0399 17.1875 20.1345 17.0068 19.2839 16.6455C18.4332 16.2842 17.6918 15.7904 17.0599 15.1641C16.428 14.5378 15.9236 13.8031 15.5469 12.96C15.1701 12.1169 14.9878 11.2135 15 10.25C15 9.2985 15.1823 8.4012 15.5469 7.55811C15.9115 6.71501 16.4097 5.98031 17.0417 5.354C17.6736 4.7277 18.421 4.22786 19.2839 3.85449C20.1467 3.48112 21.0521 3.30046 22 3.3125C22.9722 3.3125 23.8776 3.49316 24.7161 3.85449C25.5547 4.21582 26.296 4.70964 26.9401 5.33594C27.5842 5.96224 28.0885 6.70296 28.4531 7.55811C28.8177 8.41325 29 9.31055 29 10.25ZM5.66667 31.0625H1V33.375H5.66667V38H8V33.375H12.6667V31.0625H8V26.4375H5.66667V31.0625Z" fill="white" stroke="white" stroke-width="2"/>
</svg>
