<svg width="171" height="112" viewBox="0 0 171 112" fill="none" xmlns="http://www.w3.org/2000/svg">
    <path
        d="M102.974 63.1775C102.961 63.2698 102.955 63.3649 102.956 63.4615H102.947C102.95 63.3665 102.959 63.2715 102.974 63.1775ZM106.923 63.8105C106.901 63.9358 106.865 64.0619 106.816 64.1854C106.815 64.185 106.815 64.1845 106.814 64.184C106.867 64.0489 106.906 63.9087 106.93 63.7662C106.928 63.7811 106.926 63.7958 106.923 63.8105ZM103.219 62.4729C103.51 61.9506 104.025 61.5493 104.716 61.4742C104.023 61.5524 103.507 61.9686 103.219 62.4729ZM104.906 61.4615L66.0435 61.4615C63.4084 61.4615 61.2854 63.6022 61.2854 66.2282L61.2854 105.232C61.2854 107.859 63.4097 109.997 66.0435 109.997L104.955 109.997C107.586 109.997 109.715 107.862 109.715 105.232L109.714 66.2256V66.2244C109.712 63.6005 107.589 61.4619 104.955 61.461H104.954C104.938 61.461 104.922 61.4612 104.906 61.4615ZM164.241 61.46H164.241C164.215 61.46 164.189 61.4605 164.163 61.4615L125.329 61.4615C122.697 61.4615 120.568 63.5997 120.568 66.2282L120.568 105.232C120.568 107.859 122.695 109.999 125.329 109.999L164.24 109.998C166.873 109.998 169 107.86 169 105.231V66.2247C169 63.5993 166.876 61.4607 164.241 61.46ZM104.955 2L66.0435 2C63.4103 2 61.2833 4.13871 61.2833 6.76675L61.2833 45.771C61.2833 48.3964 63.4067 50.5377 66.0435 50.5377L104.955 50.5377C107.588 50.5377 109.715 48.399 109.715 45.771V6.76675C109.715 4.13986 107.591 2 104.955 2ZM95.0806 30.1576L75.9205 30.1582L85.5009 20.555L95.0806 30.1576ZM85.4998 92.4004L75.9209 82.7979H95.0815L85.4998 92.4004ZM45.6714 61.4615L6.76015 61.4615C4.12846 61.4615 2 63.5997 2 66.2282L2 105.232C2 107.86 4.12604 110 6.76015 110H45.6714C48.3054 110 50.4295 107.859 50.4295 105.232L50.4295 66.2282C50.4295 63.6014 48.3037 61.4615 45.6714 61.4615ZM29.3364 95.3257L19.7618 85.7288L29.3364 76.132L29.3364 95.3257ZM166.24 63.4607C166.24 63.7186 166.192 63.9629 166.105 64.1864C166.105 64.1862 166.105 64.1861 166.104 64.1859C166.192 63.961 166.24 63.7165 166.24 63.4607ZM141.897 95.3257L141.897 76.1332L151.471 85.7298L141.897 95.3257Z"
        stroke="white" stroke-width="4" />
</svg>
    