<svg width="36" height="36" viewBox="0 0 36 36" fill="none" xmlns="http://www.w3.org/2000/svg">
    <path
        d="M31.5144 27.5981C33.6603 25.6856 34.8754 23.1365 34.8754 20.4911C34.8754 17.6797 33.5592 15.0505 31.1694 13.0872C28.8435 11.1771 25.7647 10.125 22.5 10.125C19.2353 10.125 16.1565 11.1771 13.831 13.0873C11.4411 15.0505 10.125 17.6797 10.125 20.4911C10.125 23.3025 11.4411 25.9317 13.831 27.895C16.1565 29.8053 19.2353 30.8573 22.5 30.8573C22.935 30.8573 23.3727 30.8381 23.8068 30.7999L24.5483 31.4426C27.1028 33.6563 30.3698 34.8749 33.75 34.875H34.875V32.4804L34.5455 32.151C33.2457 30.8473 32.2157 29.3002 31.5144 27.5981V27.5981ZM26.0219 29.7422L24.534 28.4526L24.0379 28.5134C23.5276 28.5758 23.0141 28.6071 22.5 28.6071C16.9172 28.6071 12.375 24.9663 12.375 20.4911C12.375 16.0159 16.9172 12.375 22.5 12.375C28.0828 12.375 32.625 16.0159 32.625 20.4911C32.625 22.7207 31.5127 24.8022 29.4929 26.3522L28.8449 26.8494L29.1439 27.6956C29.7566 29.4239 30.6571 31.0361 31.8075 32.464C29.6652 32.1064 27.6632 31.1646 26.0219 29.7422V29.7422Z"
        fill="white" />
    <path
        d="M4.23176 22.3225C5.28485 20.9895 6.11168 19.4924 6.6792 17.8912L6.97591 17.0492L6.32855 16.5524C4.42392 15.0909 3.375 13.1293 3.375 11.029C3.375 6.80857 7.6647 3.375 12.9375 3.375C16.8165 3.375 20.1633 5.23336 21.6617 7.89609C21.9399 7.88259 22.2193 7.875 22.5 7.875C23.0638 7.875 23.6224 7.90235 24.1758 7.95705C23.5968 6.45694 22.5912 5.08753 21.2086 3.95198C18.9894 2.12899 16.0523 1.125 12.9375 1.125C9.82266 1.125 6.88556 2.12899 4.66622 3.95198C2.38261 5.82785 1.125 8.34117 1.125 11.029C1.125 13.5462 2.27475 15.9716 4.30664 17.7961C3.64355 19.3918 2.67466 20.8424 1.45455 22.0661L1.125 22.3956V24.75H2.25C4.33034 24.7497 6.38207 24.2653 8.2428 23.335C8.03877 22.5616 7.91922 21.7684 7.88625 20.9693C6.75687 21.6312 5.51986 22.0893 4.23176 22.3225V22.3225Z"
        fill="white" />
</svg>
    