<svg width="31" height="37" viewBox="0 0 31 37" fill="none" xmlns="http://www.w3.org/2000/svg">
    <path
        d="M3.78691 26.8685C2.77485 26.8685 1.82348 27.2626 1.10782 27.9782C-0.369274 29.4554 -0.369274 31.8591 1.10782 33.3363C1.82348 34.0518 2.77485 34.4459 3.78691 34.4459C4.79897 34.4459 5.75034 34.0517 6.46589 33.3363C7.18145 32.6207 7.57558 31.6693 7.57558 30.6572C7.57558 29.6452 7.18145 28.6938 6.46589 27.9782C5.75034 27.2627 4.79897 26.8685 3.78691 26.8685ZM5.11081 31.9812C4.75723 32.3348 4.28708 32.5295 3.78691 32.5295C3.28674 32.5295 2.81659 32.3348 2.46291 31.9812C1.73299 31.2512 1.73299 30.0633 2.46291 29.3333C2.81648 28.9796 3.28663 28.7849 3.78691 28.7849C4.28698 28.7849 4.75713 28.9796 5.11081 29.3332C5.46448 29.6869 5.65921 30.157 5.65921 30.6572C5.65921 31.1574 5.46448 31.6275 5.11081 31.9812Z"
        fill="white" />
    <path
        d="M30.9988 29.1915C30.9765 28.3929 30.6218 27.6296 30.0262 27.0973L24.4502 22.1148C24.8114 21.7405 25.1477 21.3437 25.4569 20.9267C25.5227 20.8595 25.5784 20.7827 25.6222 20.6986C27.0141 18.7269 27.814 16.338 27.814 13.827C27.814 10.6581 26.5343 7.17916 24.391 4.52072C22.0403 1.6056 19.0226 0 15.8934 0C13.174 0 10.5391 1.21317 8.35274 3.44425C6.43881 3.86745 4.76848 4.74909 3.46482 6.05265C1.25226 8.26531 0.253616 11.5344 0.652967 15.2579C1.01718 18.6533 2.57221 22.0183 4.81298 24.2589C6.86191 26.308 9.54855 27.4894 12.3274 27.7069L11.9926 33.6624C11.9476 34.46 12.2367 35.2505 12.7855 35.831C13.3343 36.4116 14.1074 36.7446 14.9064 36.7446H16.8804C17.6793 36.7446 18.4523 36.4117 19.0012 35.831C19.55 35.2505 19.839 34.46 19.7941 33.6624L19.4147 26.912L24.5095 32.6138C25.0418 33.2096 25.805 33.5641 26.6037 33.5866C26.6308 33.5873 26.6576 33.5877 26.6845 33.5877C27.4548 33.5877 28.2036 33.2788 28.7494 32.7329L30.1452 31.3372C30.7102 30.7723 31.0213 29.9902 30.9988 29.1915ZM26.6575 31.671C26.3793 31.6632 26.1239 31.5445 25.9384 31.337L20.8349 25.6256C20.2636 24.9863 19.4708 24.6454 18.6599 24.6454C18.2472 24.6454 17.8296 24.7338 17.4343 24.916C16.2391 25.4673 14.9703 25.7635 13.7006 25.819L23.231 16.2885C23.1756 17.5582 22.8794 18.8271 22.328 20.0223C21.7876 21.194 22.0728 22.5606 23.0376 23.4228L28.749 28.5263C28.9566 28.7117 29.0751 28.9671 29.0831 29.2453C29.0909 29.5236 28.9868 29.7853 28.7899 29.9821L27.3941 31.3778C27.1975 31.5747 26.9358 31.6789 26.6575 31.671ZM13.9059 33.77L14.2469 27.7036C15.3471 27.6131 16.442 27.3687 17.4984 26.9658L17.8809 33.7701C17.8965 34.048 17.7998 34.3124 17.6085 34.5147C17.4173 34.717 17.1587 34.8284 16.8804 34.8284H14.9064C14.6281 34.8284 14.3694 34.717 14.1781 34.5146C13.987 34.3123 13.8902 34.0479 13.9059 33.77ZM4.81991 7.40774C6.61459 5.61305 9.3303 4.81031 12.4658 5.1461C15.4402 5.46517 18.3748 6.81451 20.316 8.7558C21.7185 10.1583 22.6359 11.9172 23.0262 13.7833L11.4188 25.3908C11.3482 25.4613 11.2911 25.5402 11.2471 25.6242C9.36181 25.2402 7.58342 24.3193 6.16818 22.9039C4.22689 20.9627 2.87745 18.028 2.55848 15.0536C2.22205 11.9178 3.02522 9.20242 4.81991 7.40774ZM22.8992 5.72367C24.7768 8.05238 25.8977 11.0817 25.8977 13.827C25.8977 15.3193 25.5598 16.7595 24.9488 18.0612C25.1972 16.7426 25.2193 15.3988 25.0246 14.0876C25.0237 13.9936 25.0088 13.9 24.9804 13.8095C24.5703 11.4311 23.4467 9.17623 21.6713 7.40071C19.4305 5.15994 16.0657 3.6048 12.6703 3.24069C12.3492 3.2063 12.0319 3.18299 11.7179 3.16925C13.0384 2.34926 14.4579 1.91637 15.8934 1.91637C18.4316 1.91637 20.9196 3.26848 22.8992 5.72367Z"
        fill="white" />
</svg>
    