<svg width="30" height="30" viewBox="0 0 30 30" fill="none" xmlns="http://www.w3.org/2000/svg">
    <path
        d="M28.5 25.5V15.4005C28.5 14.5867 28.3344 13.7814 28.0134 13.0336C27.6923 12.2857 27.2225 11.611 26.6325 11.0505L17.067 1.96502C16.5095 1.43535 15.7698 1.14001 15.0007 1.14001C14.2317 1.14001 13.492 1.43535 12.9345 1.96502L3.3675 11.0505C2.77748 11.611 2.30765 12.2857 1.98661 13.0336C1.66556 13.7814 1.5 14.5867 1.5 15.4005V25.5C1.5 26.2957 1.81607 27.0587 2.37868 27.6213C2.94129 28.1839 3.70435 28.5 4.5 28.5H25.5C26.2956 28.5 27.0587 28.1839 27.6213 27.6213C28.1839 27.0587 28.5 26.2957 28.5 25.5Z"
        stroke="white" stroke-width="2" stroke-linecap="round" stroke-linejoin="round" />
    <path
        d="M10.5 19.5C10.5 18.7044 10.8161 17.9413 11.3787 17.3787C11.9413 16.8161 12.7044 16.5 13.5 16.5H16.5C17.2956 16.5 18.0587 16.8161 18.6213 17.3787C19.1839 17.9413 19.5 18.7044 19.5 19.5V28.5H10.5V19.5Z"
        stroke="white" stroke-width="2" stroke-linecap="round" stroke-linejoin="round" />
</svg>
    