<svg width="36" height="28" viewBox="0 0 36 28" fill="none" xmlns="http://www.w3.org/2000/svg">
    <path
        d="M0.498238 12.7614L12.4988 0.513432C13.5703 -0.580137 15.4276 0.18536 15.4276 1.75281V8.75165L25.1423 8.75165C26.0924 8.75165 26.8567 9.53172 26.8567 10.5014V17.5002C26.8567 18.4698 26.0924 19.2499 25.1423 19.2499H15.4276V26.2487C15.4276 27.8089 13.5775 28.5817 12.4988 27.4881L0.498238 15.2402C-0.16608 14.5548 -0.16608 13.4467 0.498238 12.7614ZM22.285 0.877954V3.79414C22.285 4.27531 22.6708 4.66899 23.1422 4.66899H29.1425C30.4069 4.66899 31.4283 5.71153 31.4283 7.00194L31.4283 20.9996C31.4283 22.29 30.4069 23.3326 29.1425 23.3326H23.1422C22.6708 23.3326 22.285 23.7262 22.285 24.2074V27.1236C22.285 27.6048 22.6708 27.9984 23.1422 27.9984H29.1425C32.9284 27.9984 36 24.8636 36 20.9996V7.00194C36 3.13799 32.9284 0.00309944 29.1425 0.00309944H23.1422C22.6708 0.00309944 22.285 0.396784 22.285 0.877954Z"
        fill="white" />
</svg>
    