<svg width="36" height="37" viewBox="0 0 36 37" fill="none" xmlns="http://www.w3.org/2000/svg">
    <path
        d="M21.3771 37H14.624C14.2009 37.0001 13.7905 36.8559 13.4608 36.5914C13.1311 36.327 12.902 35.9581 12.8114 35.5459L12.0564 32.0605C11.0491 31.6204 10.0939 31.07 9.20856 30.4196L5.80047 31.5018C5.39707 31.6301 4.9618 31.6169 4.56695 31.4645C4.1721 31.312 3.84142 31.0295 3.62983 30.6638L0.245859 24.8344C0.036486 24.4683 -0.0421075 24.0423 0.0229372 23.6259C0.0879819 23.2095 0.292814 22.8275 0.603922 22.5423L3.24765 20.1373C3.12742 19.0478 3.12742 17.9485 3.24765 16.8591L0.603922 14.4596C0.292373 14.1743 0.0872627 13.7919 0.0222074 13.3751C-0.042848 12.9583 0.036011 12.5318 0.245859 12.1656L3.62241 6.33255C3.834 5.96683 4.16468 5.68429 4.55953 5.53185C4.95438 5.3794 5.38965 5.36622 5.79305 5.4945L9.20113 6.57675C9.65381 6.24375 10.125 5.93295 10.6111 5.65175C11.0805 5.38905 11.5629 5.1504 12.0564 4.93765L12.8133 1.45595C12.9034 1.04377 13.1321 0.674672 13.4614 0.409865C13.7908 0.145058 14.201 0.000443937 14.624 0H21.3771C21.8002 0.000443937 22.2104 0.145058 22.5397 0.409865C22.869 0.674672 23.0977 1.04377 23.1878 1.45595L23.9522 4.9395C24.9582 5.38215 25.9131 5.93235 26.8 6.58045L30.2099 5.4982C30.6131 5.37039 31.0479 5.38382 31.4424 5.53624C31.8368 5.68866 32.1672 5.97093 32.3787 6.33625L35.7553 12.1693C36.1857 12.9223 36.0373 13.875 35.3972 14.4615L32.7535 16.8664C32.8737 17.9559 32.8737 19.0552 32.7535 20.1446L35.3972 22.5497C36.0373 23.138 36.1857 24.0889 35.7553 24.8418L32.3787 30.6748C32.1671 31.0406 31.8365 31.3231 31.4416 31.4756C31.0468 31.628 30.6115 31.6412 30.2081 31.5129L26.8 30.4306C25.9153 31.0806 24.9608 31.6304 23.9541 32.0697L23.1878 35.5459C23.0974 35.9577 22.8685 36.3264 22.5392 36.5909C22.2099 36.8553 21.7999 36.9996 21.3771 37ZM17.9931 11.1C16.025 11.1 14.1374 11.8796 12.7457 13.2674C11.354 14.6552 10.5722 16.5374 10.5722 18.5C10.5722 20.4626 11.354 22.3448 12.7457 23.7326C14.1374 25.1204 16.025 25.9 17.9931 25.9C19.9613 25.9 21.8489 25.1204 23.2406 23.7326C24.6323 22.3448 25.4141 20.4626 25.4141 18.5C25.4141 16.5374 24.6323 14.6552 23.2406 13.2674C21.8489 11.8796 19.9613 11.1 17.9931 11.1Z"
        fill="white" />
</svg>