<svg width="36" height="24" viewBox="0 0 36 24" fill="none" xmlns="http://www.w3.org/2000/svg">
    <path
        d="M27 11.65H27.0161L27.0322 11.6495C29.1545 11.581 31.2142 12.2008 32.725 13.1174C33.4792 13.575 34.0665 14.0883 34.4556 14.5932C34.8097 15.0527 34.9681 15.4617 34.9956 15.795C34.9108 15.8706 34.7406 15.9808 34.4494 16.1034C33.9854 16.2987 33.3529 16.4688 32.6197 16.6029C31.3097 14.5204 29.2091 12.8825 26.8217 11.65H27ZM9 11.5H9.47426C6.96499 12.7486 4.74417 14.4347 3.38031 16.6029C2.64706 16.4688 2.01458 16.2987 1.55056 16.1034C1.25939 15.9808 1.08921 15.8706 1.0044 15.795C1.03186 15.4616 1.19036 15.052 1.54552 14.5895C1.93581 14.0811 2.52494 13.5622 3.28195 13.0944C4.79836 12.1573 6.86721 11.5 9 11.5ZM23 6C23 8.74771 20.7477 11 18 11C15.2523 11 13 8.74771 13 6C13 3.25228 15.2523 1 18 1C20.7477 1 23 3.25228 23 6ZM7 21C7 19.7211 8.0941 18.1082 10.232 16.7428C12.3095 15.416 15.1239 14.5 18 14.5C20.8761 14.5 23.6905 15.416 25.768 16.7428C27.9059 18.1082 29 19.7211 29 21C29 21.0131 28.9985 21.0282 28.9829 21.0575C28.9642 21.0925 28.9208 21.1546 28.8259 21.2377C28.6265 21.4121 28.2837 21.6069 27.7739 21.798C26.7606 22.178 25.3539 22.448 23.876 22.6327C22.413 22.8156 20.9427 22.9078 19.8334 22.954C19.28 22.9771 18.8192 22.9886 18.4978 22.9943C18.3371 22.9972 18.2114 22.9986 18.1264 22.9993L18.0304 22.9999L18.0067 23L18.0012 23H18.0001H18.0001H17.9999H17.9999H17.9988L17.9933 23L17.9696 22.9999L17.8736 22.9993C17.7886 22.9986 17.6629 22.9972 17.5022 22.9943C17.1808 22.9886 16.72 22.9771 16.1666 22.954C15.0573 22.9078 13.587 22.8156 12.124 22.6327C10.6461 22.448 9.2394 22.178 8.22612 21.798C7.71629 21.6069 7.37351 21.4121 7.17413 21.2377C7.07919 21.1546 7.0358 21.0925 7.01712 21.0575C7.0015 21.0282 7 21.0131 7 21ZM27.8446 7.90606C27.9492 7.28303 28 6.63818 28 6C28 4.18405 27.4967 2.4709 26.6469 1.01478C26.7591 1.00492 26.8764 1 27 1C28.9977 1 30.5 2.50228 30.5 4.5C30.5 6.20444 29.4064 7.54824 27.8446 7.90606ZM8.15539 7.90605C6.59357 7.54824 5.5 6.20444 5.5 4.5C5.5 2.50228 7.00228 1 9 1C9.12364 1 9.24087 1.00492 9.35313 1.01478C8.50328 2.4709 8 4.18404 8 6C8 6.63818 8.05084 7.28303 8.15539 7.90605Z"
        stroke="white" stroke-width="2" />
</svg>
    