<svg width="314" height="152" viewBox="0 0 314 152" fill="none" xmlns="http://www.w3.org/2000/svg">
<path d="M26.3646 0.82666H3.81542C2.25872 0.82666 0.996765 2.12165 0.996765 3.71908V113.634C0.996765 115.232 2.25872 116.527 3.81542 116.527H26.3646C27.9213 116.527 29.1833 115.232 29.1833 113.634V3.71908C29.1833 2.12165 27.9213 0.82666 26.3646 0.82666Z" fill="white" stroke="black" stroke-width="1.33333"/>
<path d="M310.489 35.5927H287.94C286.383 35.5927 285.121 36.8876 285.121 38.4851V148.4C285.121 149.998 286.383 151.293 287.94 151.293H310.489C312.046 151.293 313.308 149.998 313.308 148.4V38.4851C313.308 36.8876 312.046 35.5927 310.489 35.5927Z" fill="white" stroke="black" stroke-width="1.33333"/>
<path d="M268.275 46.9979H245.725C244.169 46.9979 242.907 48.2929 242.907 49.8903V73.0297C242.907 74.6271 244.169 75.9221 245.725 75.9221H268.275C269.831 75.9221 271.093 74.6271 271.093 73.0297V49.8903C271.093 48.2929 269.831 46.9979 268.275 46.9979Z" fill="white" stroke="black" stroke-width="1.33333"/>
<path d="M161.625 47.1626H42.1137V76.0868H161.625V47.1626Z" fill="url(#paint0_linear_1_11)"/>
<defs>
<linearGradient id="paint0_linear_1_11" x1="42.1134" y1="61.6246" x2="161.624" y2="61.6246" gradientUnits="userSpaceOnUse">
<stop stop-color="#510154"/>
<stop offset="1" stop-color="white" stop-opacity="0.67"/>
</linearGradient>
</defs>
</svg>
