<svg width="94" height="95" viewBox="0 0 94 95" fill="none" xmlns="http://www.w3.org/2000/svg">
<rect width="93.3933" height="94.4045" rx="46.6966" fill="#2D2D3A"/>
<path d="M50.1862 42.966L43.4139 43.7993L43.1714 44.9027L44.5022 45.1437C45.3717 45.3469 45.5432 45.6547 45.3539 46.5054L43.1714 56.5748C42.5977 59.1792 43.4819 60.4045 45.5609 60.4045C47.1727 60.4045 49.0447 59.6728 49.8935 58.6682L50.1537 57.4603C49.5622 57.9714 48.6987 58.1746 48.125 58.1746C47.3117 58.1746 47.016 57.6142 47.2259 56.627L50.1862 42.966ZM50.3933 36.9035C50.3933 37.6736 50.0817 38.4121 49.5271 38.9566C48.9725 39.5011 48.2202 39.807 47.4359 39.807C46.6516 39.807 45.8993 39.5011 45.3447 38.9566C44.7901 38.4121 44.4785 37.6736 44.4785 36.9035C44.4785 36.1334 44.7901 35.3949 45.3447 34.8504C45.8993 34.3059 46.6516 34 47.4359 34C48.2202 34 48.9725 34.3059 49.5271 34.8504C50.0817 35.3949 50.3933 36.1334 50.3933 36.9035Z" fill="white"/>
</svg>
