<svg width="94" height="95" viewBox="0 0 94 95" fill="none" xmlns="http://www.w3.org/2000/svg">
<rect width="93.3933" height="94.4045" rx="46.6966" fill="#2D2D3A"/>
<path d="M46.9998 49.2164L39.2414 56.9748C38.9512 57.265 38.5817 57.4102 38.1331 57.4102C37.6845 57.4102 37.315 57.265 37.0248 56.9748C36.7345 56.6845 36.5894 56.3151 36.5894 55.8664C36.5894 55.4178 36.7345 55.0484 37.0248 54.7581L44.7831 46.9998L37.0248 39.2414C36.7345 38.9512 36.5894 38.5817 36.5894 38.1331C36.5894 37.6845 36.7345 37.315 37.0248 37.0248C37.315 36.7345 37.6845 36.5894 38.1331 36.5894C38.5817 36.5894 38.9512 36.7345 39.2414 37.0248L46.9998 44.7831L54.7581 37.0248C55.0484 36.7345 55.4178 36.5894 55.8664 36.5894C56.3151 36.5894 56.6845 36.7345 56.9748 37.0248C57.265 37.315 57.4102 37.6845 57.4102 38.1331C57.4102 38.5817 57.265 38.9512 56.9748 39.2414L49.2164 46.9998L56.9748 54.7581C57.265 55.0484 57.4102 55.4178 57.4102 55.8664C57.4102 56.3151 57.265 56.6845 56.9748 56.9748C56.6845 57.265 56.3151 57.4102 55.8664 57.4102C55.4178 57.4102 55.0484 57.265 54.7581 56.9748L46.9998 49.2164Z" fill="white"/>
</svg>
