<svg width="828" height="836" viewBox="0 0 828 836" fill="none" xmlns="http://www.w3.org/2000/svg">
    <g clip-path="url(#clip0_78_2)">
    <path fill-rule="evenodd" clip-rule="evenodd" d="M270.108 96.718C259.079 100.808 252.732 98.8215 246.802 96.718C252.212 95.3156 257.831 97.1854 261.993 93.9132C255.334 94.3806 249.715 91.2253 244.513 89.0049C246.49 88.5374 249.507 89.0049 251.899 87.4857C243.473 86.7846 239.414 79.7726 234.316 78.1366C240.663 72.7608 246.073 75.9162 253.044 64.6972C257.518 65.7489 260.744 65.7489 263.345 64.6972C260.224 64.3466 257.415 64.1129 255.646 62.2431C260.952 62.4768 266.362 60.7238 271.876 62.2431C267.507 58.5034 261.056 59.672 257.206 56.5167C276.142 34.4295 300.385 12.8096 329.101 3.69421C343.773 -0.980357 366.87 -0.512922 378.94 1.24004C383.518 8.25188 381.54 17.1335 377.483 25.1972C385.702 17.1335 384.142 10.706 383.933 3.81103C386.639 9.88796 387.887 17.1335 385.494 24.4959C395.067 22.3924 403.494 28.4694 411.61 37.9353C431.482 61.0745 429.506 84.3303 443.031 103.613C422.535 108.989 392.986 94.6145 382.789 94.4976C399.436 98.9384 419.309 112.144 440.014 107.469C441.574 115.183 445.216 124.064 446.778 131.777C440.119 133.063 431.691 137.971 424.72 138.789C400.893 141.594 396.731 118.922 378.004 110.625C368.119 106.301 357.922 109.222 352.616 128.856C351.159 134.115 351.68 140.308 351.887 145.801C347.933 144.515 345.749 133.297 330.455 125.466C325.668 123.012 321.09 121.843 316.72 117.052C317.656 112.027 311.102 107.236 313.702 102.912C321.506 97.7698 335.76 96.1336 348.454 94.7313C334.2 94.2638 321.61 95.7831 312.247 100.458C310.685 89.4723 308.5 77.0848 312.454 64.6972C324.627 50.323 342.731 44.7134 360.42 38.5197C341.587 43.1943 325.98 48.3363 310.166 58.5034C308.188 61.3082 305.067 66.6839 303.714 70.5404C294.038 75.5655 283.218 84.564 270.108 96.718Z" fill="white"/>
    <path fill-rule="evenodd" clip-rule="evenodd" d="M307.461 71.9427C294.767 77.786 282.385 86.6676 273.021 96.3674C273.542 112.612 275.83 127.803 280.721 142.178C282.594 147.788 286.339 152.228 288.628 157.604C289.356 159.474 289.668 161.577 289.668 163.681C289.668 172.095 288.941 180.509 288.732 188.924C288.628 191.611 289.253 194.767 291.541 195.585C295.391 196.871 302.258 196.753 307.564 197.338C306.004 197.805 304.547 198.156 302.986 198.506C304.131 203.415 304.235 207.155 303.819 210.544C305.171 211.946 306.836 213.465 310.582 214.4C313.495 215.101 316.616 215.218 319.425 216.504C320.154 216.854 320.361 218.023 320.882 218.724C318.594 218.49 316.304 218.14 314.119 217.789C312.559 218.958 312.975 221.412 313.911 222.698C315.264 224.801 317.969 225.385 320.049 226.788C323.899 230.527 323.275 236.487 325.356 241.045C326.501 243.499 327.333 246.888 329.622 247.823C337.217 250.862 350.847 250.044 353.553 245.836C362.293 232.397 368.847 221.88 373.945 204.7C372.385 216.62 365.726 229.826 358.651 242.915C372.697 234.852 387.887 237.305 405.055 230.995C402.766 234.852 397.772 235.903 394.027 237.305C404.847 241.629 413.171 251.562 420.766 260.093C423.783 245.954 429.194 232.28 438.038 220.477C447.714 207.505 455.518 190.093 460.096 167.187C461.135 160.175 462.28 153.164 463.425 146.152C455.621 144.399 448.65 141.828 443.864 134.582C437.205 138.905 430.754 140.425 423.471 141.36C411.922 142.646 400.581 131.894 388.408 120.559C384.662 117.052 380.709 114.131 377.067 112.378C380.188 115.416 384.662 121.143 386.431 126.635C388.199 132.361 387.575 140.542 385.911 146.385C384.246 152.346 380.709 152.696 377.067 159.942C376.131 161.929 372.593 160.877 370.72 158.422C371.657 162.629 372.489 168.589 372.489 173.263C371.552 166.252 370.096 159.474 367.703 153.63C370.72 157.137 375.09 160.759 376.547 157.253C379.876 149.657 382.79 150.593 384.35 145.217C386.015 139.49 385.806 132.245 384.35 126.519C383.102 121.259 379.564 116.001 376.962 112.378C373.217 110.625 369.679 110.157 366.767 111.443C360.211 114.364 356.882 122.662 351.992 128.271C351.575 131.31 351.263 132.945 350.951 136.102C351.68 139.49 352.2 144.281 353.656 147.204C355.009 150.241 349.495 147.086 347.102 144.048C342.94 138.789 338.986 134.231 333.888 130.024C328.477 125.7 321.299 122.194 315.368 118.806C315.888 112.378 310.582 109.339 309.229 101.626C307.669 91.8096 307.252 81.7593 307.461 71.9427ZM309.645 156.319C307.773 160.058 306.107 161.461 303.714 163.447C302.674 164.382 307.148 167.421 307.669 169.992C308.813 174.783 307.044 181.094 308.085 185.417C307.357 185.067 306.419 182.613 306.524 181.094C306.732 177.354 307.876 173.497 306.94 169.875C306.316 167.303 301.529 164.732 302.466 163.564C305.171 160.292 306.004 157.604 309.645 156.319ZM310.686 152.696C309.542 153.164 309.021 153.982 307.669 154.098C303.195 154.566 299.241 153.864 295.807 154.916C295.495 153.982 295.391 152.696 295.599 151.177C296.015 151.644 296.119 152.93 296.743 152.93C302.571 152.579 306.732 153.514 310.686 152.696Z" fill="white"/>
    <path fill-rule="evenodd" clip-rule="evenodd" d="M446.361 119.038C447.297 124.414 448.65 128.856 450.523 132.127C449.69 133.297 448.858 134.348 448.026 135.516C453.123 139.607 458.639 141.244 463.217 142.294C462.904 135.634 459.575 128.037 453.332 130.258C465.61 122.545 466.025 140.659 465.298 147.32C463.424 162.863 461.551 180.275 455.517 195.351C449.17 211.128 437.621 223.866 430.338 239.175C427.113 245.954 426.177 253.9 424.096 261.145C425.032 268.04 426.072 274.936 426.905 281.83C427.32 285.687 426.072 288.492 423.784 290.011C422.742 280.778 421.91 271.429 418.892 263.132C410.049 252.732 399.645 243.499 389.24 238.357C388.408 238.474 387.575 238.591 386.742 238.708C388.824 246.654 389.448 257.056 388.616 264.301C397.979 259.627 412.547 260.679 415.876 265.937C407.24 263.25 397.564 264.184 386.015 268.625C387.159 259.393 386.43 249.343 382.894 239.175C380.813 239.409 378.628 239.76 376.235 240.11C367.703 241.512 362.396 244.2 357.506 246.772C354.177 249.927 351.056 252.848 345.957 253.549C339.714 254.485 330.662 254.017 325.668 249.81C321.61 246.42 320.882 236.605 318.073 231.579C314.12 235.202 311.934 236.605 309.125 241.396C307.98 243.149 308.292 247.473 306.628 249.109C298.096 257.056 288.836 262.898 280.616 271.313C277.287 274.585 273.854 279.26 271.981 283.583C276.975 279.026 285.091 279.026 293.414 280.546C300.49 281.83 308.813 284.986 313.183 287.674C320.258 295.153 327.333 302.749 334.408 310.228C398.5 312.333 461.136 313.384 525.332 315.37C537.608 319.928 557.066 328.81 565.597 329.861C560.915 320.63 552.695 309.41 547.181 303.216C540.21 295.153 536.672 288.375 534.072 280.662C534.072 265.353 533.655 251.68 533.655 236.371C546.973 217.556 555.713 183.781 569.446 176.186C566.949 168.355 558.626 165.084 552.904 163.33C529.806 155.969 509.724 158.422 485.17 149.657C484.13 168.005 484.442 186.469 481.945 204.7C479.759 220.827 474.869 236.487 471.332 252.38C454.997 249.81 439.493 248.875 428.361 256.588C436.269 246.186 451.98 246.304 469.876 249.343C472.684 233.566 476.534 218.023 478.199 202.013C480.28 183.314 481.321 164.382 481.009 145.45C480.904 138.673 478.199 131.66 473.205 128.388C464.777 122.895 455.309 121.025 446.361 119.038Z" fill="white"/>
    <path fill-rule="evenodd" clip-rule="evenodd" d="M314.64 286.038C301.426 283.583 286.13 281.714 276.767 283.701C273.23 284.518 272.814 286.154 269.484 287.674C253.356 294.803 242.224 301.463 230.362 308.71C228.906 309.528 228.49 311.514 228.282 313.734C233.172 314.786 242.224 317.123 252.837 323.435C271.357 334.419 281.553 348.326 294.455 361.648C272.605 342.015 250.444 319.344 224.12 316.072C217.668 320.512 211.114 324.837 203.623 327.408C217.668 328.693 232.548 333.134 247.322 342.6C272.293 358.611 281.553 372.634 292.062 386.19C296.327 383.385 300.593 381.515 304.859 379.996C306.628 380.23 308.293 381.281 310.478 380.347C326.917 372.984 340.338 370.297 354.385 367.492C352.304 365.973 350.223 363.168 348.142 361.648C341.9 361.414 335.553 363.753 329.518 362C319.53 359.311 310.894 352.883 300.698 349.962C313.807 350.196 327.853 363.051 344.709 358.493C340.547 353.468 335.969 348.794 332.327 343.301C327.645 336.523 328.789 331.03 329.206 325.772C330.246 332.784 332.952 339.444 338.154 344.937C346.166 353.351 354.592 363.753 363.02 371.582C393.09 399.513 422.742 419.029 451.459 450.582C453.54 452.919 455.101 456.191 455.621 459.347C435.853 438.078 415.668 420.431 392.57 402.902C404.222 416.809 411.922 432.819 423.783 445.673C445.009 468.697 445.945 482.954 463.32 491.719C477.471 498.847 493.285 500.484 508.372 504.924C496.823 485.641 485.378 466.358 473.829 447.076C469.667 442.284 464.569 438.545 461.344 432.468C458.847 427.793 452.395 422.185 448.235 416.575C446.361 414.004 443.24 399.629 443.864 390.982C443.24 388.177 442.512 388.059 441.159 385.255C424.304 385.722 384.87 369.011 371.033 351.014C369.679 349.378 368.327 347.859 368.639 345.404L369.055 340.847C371.864 329.277 404.639 323.667 422.327 327.29C445.424 331.966 470.188 348.56 474.869 358.961C475.078 354.637 478.511 352.533 480.384 353.935C489.54 358.143 496.303 357.325 500.777 361.298C507.748 367.374 515.552 371.933 524.604 375.789C530.846 378.478 534.487 382.333 544.372 392.969C558.211 394.604 570.591 393.787 586.511 390.982C589.112 390.514 593.897 391.8 596.707 396.474C601.493 396.24 615.852 394.721 619.702 392.851C613.458 387.475 601.597 365.856 596.915 364.687C588.279 362.466 575.274 345.171 571.112 337.107C551.135 329.043 538.337 324.369 518.985 312.449C460.408 310.112 401.726 307.891 343.044 305.671C333.679 299.126 324.108 292.582 314.64 286.038Z" fill="white"/>
    <path fill-rule="evenodd" clip-rule="evenodd" d="M572.88 179.575C564.661 185.885 558.626 193.598 554.361 203.999C548.326 218.373 539.274 229.242 530.222 241.512C530.742 256.237 531.158 270.962 531.678 285.57C540.418 293.283 548.638 301.581 556.545 310.228C566.325 320.98 582.141 344.704 591.609 356.04C593.897 358.843 597.747 358.843 600.244 358.377C602.117 359.896 603.886 362.7 606.903 367.96C608.256 369.595 611.481 369.245 613.25 368.66C630.521 362.584 647.898 356.39 662.568 341.315C662.568 334.887 662.568 325.187 661.528 318.759C666.521 321.915 668.914 328.342 672.348 332.55C681.296 325.654 688.371 314.319 691.597 305.086C687.434 299.243 684.938 295.737 680.775 289.894C681.92 286.622 681.192 283.467 679.215 279.96C664.44 254.485 641.446 218.49 626.776 205.868C619.597 203.999 611.169 202.831 604.094 207.037C593.794 213.115 586.198 222.346 578.603 233.916C585.158 221.529 591.192 211.244 602.637 204.7C607.111 202.129 616.06 201.428 621.054 202.013C607.111 189.04 591.297 179.809 572.88 179.575Z" fill="white"/>
    <path fill-rule="evenodd" clip-rule="evenodd" d="M688.371 320.512C683.793 326.472 679.111 332.432 672.453 337.926C670.371 334.653 667.875 331.381 665.273 328.226C666.521 333.251 666.834 338.276 666.418 343.302C648.001 358.727 629.482 367.258 610.962 372.75C620.014 388.06 623.343 387.125 634.892 394.371C645.088 392.384 655.909 393.203 666.418 396.474C673.077 398.578 679.943 406.174 686.498 408.628C679.007 406.876 672.556 400.448 666.106 399.045C655.285 396.825 646.336 395.422 635.411 397.058C622.926 398.929 610.441 399.513 597.851 400.331C605.03 420.081 604.718 439.713 597.123 459.58C619.805 468.345 643.319 478.396 666.834 483.888C683.586 487.745 698.36 482.72 710.013 476.41L639.677 419.262L671.516 420.548L714.695 442.986L707.62 396.592L677.342 345.288L706.787 365.622C700.025 345.872 698.983 338.86 688.371 320.512Z" fill="white"/>
    <path fill-rule="evenodd" clip-rule="evenodd" d="M594.521 400.798C593.065 397.058 590.048 394.137 587.967 394.253C576.731 397.877 566.013 398.344 554.673 397.058C552.176 396.708 550.511 398.344 549.783 401.734C551.238 403.252 552.279 404.071 555.088 405.473C558.002 405.707 562.996 421.833 561.019 434.339C559.354 444.973 553.528 453.854 548.014 457.711C545.933 457.828 544.06 457.477 542.083 457.594C542.812 461.451 545.204 465.892 547.702 466.126C561.644 467.411 576.002 468.345 586.302 466.126C589.319 465.54 592.649 463.087 593.794 460.516C602.325 440.649 601.909 420.548 594.521 400.798Z" fill="white"/>
    <path fill-rule="evenodd" clip-rule="evenodd" d="M554.673 408.16C557.794 413.42 559.978 424.405 558.73 432.352C557.378 440.765 553.424 449.998 547.285 455.023C530.742 453.738 513.678 453.621 496.615 451.751C489.644 451.049 480.488 446.141 476.431 442.285C481.736 433.987 487.668 427.093 489.228 415.991C486.418 426.976 480.488 433.521 474.765 440.883C469.563 437.142 467.691 435.741 464.881 430.482C462.696 426.392 457.078 422.301 452.395 417.159C450.314 414.939 446.881 404.187 445.945 396.592C445.633 394.955 445.945 392.735 447.193 392.618C449.066 397.176 451.98 404.304 454.164 406.174C459.366 410.498 464.569 417.276 468.834 422.535C465.193 417.043 460.823 409.563 455.83 404.655C453.644 402.552 447.921 391.683 444.697 385.022C446.985 385.022 450.002 384.204 452.188 384.204C455.413 387.943 456.245 389.93 459.471 393.203C462.592 396.474 471.852 407.109 475.493 411.199C471.748 404.421 464.049 395.306 459.471 389.229C455.309 383.385 452.083 378.36 448.13 368.894C444.488 360.246 439.91 351.598 447.402 353.235C452.916 354.403 460.199 363.753 464.465 372.868C473.517 382.801 477.574 387.709 484.857 398.111C491.204 401.5 499.424 407.46 505.875 410.849C517.007 413.77 525.123 405.239 524.916 398.461C523.771 392.384 517.736 389.346 510.662 386.775C504.003 383.619 497.239 380.464 490.58 377.309C485.378 374.854 482.464 371.816 478.615 365.739C476.534 362.35 478.095 356.04 480.904 356.624C481.112 356.624 489.02 360.48 496.199 362.818C500.361 364.22 503.274 368.661 508.893 371.699C514.823 375.088 518.569 376.141 524.604 379.062C529.597 381.399 538.962 391.216 544.788 399.981C547.39 403.837 550.926 406.057 554.673 408.16Z" fill="white"/>
    <path fill-rule="evenodd" clip-rule="evenodd" d="M471.853 444.623C475.702 446.843 480.28 451.867 486.835 453.504C501.089 456.893 523.147 457.127 537.61 457.828C539.482 463.554 541.875 468.345 545.412 469.865C554.673 471.15 569.239 471.15 578.395 470.566C587.135 470.099 593.482 469.397 595.459 464.84C607.111 469.281 618.764 473.605 630.314 478.046C641.446 488.796 652.579 499.666 663.608 510.417L637.389 514.273L600.973 490.901C588.8 488.564 576.731 486.225 564.557 483.888C604.822 511.118 644.984 538.464 685.25 565.693C644.672 556.344 604.094 546.996 563.516 537.647C552.279 524.09 538.129 512.871 508.372 504.924C498.175 498.146 486.731 490.199 476.534 483.421C475.494 471.034 472.893 457.009 471.853 444.623Z" fill="white"/>
    <path fill-rule="evenodd" clip-rule="evenodd" d="M281.865 379.412C257.415 350.196 236.085 336.64 208.513 332.666C203.414 334.653 198.005 340.847 191.762 339.795C199.253 344.236 204.352 347.509 207.264 350.898C210.697 355.222 216.004 357.325 222.248 358.493C217.67 359.429 213.091 361.416 206.016 354.169C190.722 338.744 177.923 340.263 162.317 342.6C155.241 343.652 147.334 349.028 140.259 350.196C127.045 352.417 111.334 353.117 98.433 351.715C100.514 354.053 102.595 356.74 104.156 359.662C113.727 364.921 128.19 368.193 139.114 369.011C127.357 370.063 112.479 365.856 105.925 363.753C106.861 367.024 107.068 370.647 105.82 374.27C104.364 366.791 103.323 359.077 96.5604 353.585C93.4383 351.014 88.1325 348.677 81.7857 346.573C85.9478 347.041 90.1088 347.509 93.8552 349.144C91.462 343.535 86.1551 338.51 80.3289 333.368C79.1841 339.211 79.2889 344.938 79.601 350.78C82.2015 354.52 87.4047 357.793 91.6704 362.116C94.7914 365.155 94.8951 368.544 93.231 370.998C87.5083 373.802 81.7857 376.725 76.0631 379.529C80.5373 383.97 89.1725 388.06 95.4156 387.827C99.7851 387.593 101.971 386.658 105.196 380.581C106.132 384.672 103.739 387.593 99.7851 389.93C103.115 392.735 106.652 393.903 111.022 394.371C112.999 394.605 114.456 394.02 115.913 391.917C117.161 393.435 115.08 396.708 114.144 397.409C133.185 403.252 153.265 411.55 172.721 415.289C185.207 417.627 197.9 418.445 207.264 408.512C212.154 403.369 216.732 393.787 220.894 392.735C216.317 397.76 213.091 403.603 211.114 409.446C219.23 403.72 227.45 401.5 235.565 400.097C252.837 397.176 266.986 387.359 281.865 379.412Z" fill="white"/>
    <path fill-rule="evenodd" clip-rule="evenodd" d="M559.666 531.803C547.39 525.142 535.008 515.909 521.899 511.702C504.419 506.21 490.476 506.444 464.777 496.861C472.165 505.742 479.031 511.468 488.292 518.598C490.685 520.351 488.707 524.44 490.373 525.025C499.944 528.648 505.979 528.882 516.071 528.882C509.205 530.05 501.922 532.153 489.852 528.882C487.563 528.297 486.731 530.634 486.211 531.335C489.123 535.893 494.222 540.684 499.737 545.125C510.038 553.422 522.002 556.812 532.823 561.019C523.251 558.798 513.783 558.214 498.28 548.164C490.789 543.255 485.482 536.945 482.569 531.686C480.904 532.621 478.823 534.14 477.991 537.295C477.159 540.802 477.679 543.373 476.638 547.462C475.91 550.969 471.124 553.54 471.332 558.098C471.956 559.382 473.725 562.071 476.846 562.889C529.806 577.146 562.892 604.025 595.25 635.812L653.1 644.577L581.308 594.208L607.632 595.494L674.429 629.501L579.019 552.604L630.626 568.381L559.666 531.803Z" fill="white"/>
    <path fill-rule="evenodd" clip-rule="evenodd" d="M547.909 595.26C523.042 582.054 497.968 570.484 471.644 564.876C434.5 582.288 405.159 603.207 380.708 626.463C396.003 632.89 411.297 642.239 426.489 653.693C408.176 643.525 392.465 636.279 379.356 631.955C374.674 634.058 370.72 636.629 367.598 639.668C399.541 651.588 430.234 679.052 460.511 705.931C446.673 698.802 431.898 688.869 418.061 685.128C436.477 694.945 458.43 719.019 481.321 746.483L471.644 712.942L517.424 723.811L430.025 634.994L479.135 638.266L550.719 657.666C554.985 658.834 470.915 605.427 470.915 605.427L515.343 611.621L570.072 639.668C556.025 625.879 541.875 612.205 527.828 598.416C534.487 597.363 541.146 596.311 547.909 595.26Z" fill="white"/>
    <path fill-rule="evenodd" clip-rule="evenodd" d="M369.784 652.64C383.726 658.483 397.668 667.248 411.61 678.233C403.182 679.402 394.651 680.572 386.223 681.739C369.472 695.88 352.72 709.904 336.072 723.927C330.87 739.353 356.361 734.561 388.304 767.985C362.917 758.635 337.633 747.066 312.247 746.599C308.188 749.638 305.588 765.063 309.125 770.673C317.449 785.281 321.923 794.864 330.246 809.589C318.177 792.993 308.813 780.723 295.912 768.336C297.055 751.741 301.529 741.809 305.9 731.522C309.125 723.577 310.685 716.214 315.888 709.67C332.327 688.985 351.784 671.689 369.784 652.64Z" fill="white"/>
    <path fill-rule="evenodd" clip-rule="evenodd" d="M667.873 764.363L522.418 680.22H555.505L667.873 764.363Z" fill="white"/>
    <path fill-rule="evenodd" clip-rule="evenodd" d="M585.262 726.265L562.059 713.293L498.904 760.739L585.262 726.265Z" fill="white"/>
    <path fill-rule="evenodd" clip-rule="evenodd" d="M698.776 532.387L706.58 554.241L675.365 529.466L698.776 532.387Z" fill="white"/>
    <path fill-rule="evenodd" clip-rule="evenodd" d="M720.833 596.663L761.411 649.251L735.192 636.629L719.585 617.114L646.753 579.133L710.429 602.505L720.833 596.663Z" fill="white"/>
    <path fill-rule="evenodd" clip-rule="evenodd" d="M806.151 745.664L731.446 709.554L720.105 713.877L658.614 677.649L747.573 749.988H772.128L828 786.099L773.064 741.457L806.151 745.664Z" fill="white"/>
    <path fill-rule="evenodd" clip-rule="evenodd" d="M398.5 781.775L425.864 787.151L421.182 793.461L470.396 836L398.5 781.775Z" fill="white"/>
    <path fill-rule="evenodd" clip-rule="evenodd" d="M93.3928 370.074C93.3928 366.217 91.6238 364.348 89.7512 362.362C86.006 358.154 81.3233 355.233 77.1623 351.726C74.3523 348.689 72.8954 343.547 72.8954 340.742C73.8329 342.729 74.8728 346.351 77.1623 348.221C76.1212 338.521 78.5144 327.419 77.0575 320.407C76.2248 316.084 72.2712 313.745 71.2312 316.318C68.0054 324.615 67.3812 333.73 64.8844 342.377C63.636 346.468 64.3638 351.61 67.1739 357.804C63.4275 354.882 61.1392 346.702 61.3465 341.443C61.8671 332.327 66.5485 321.576 68.9417 310.124C70.2949 303.93 66.757 297.619 63.9481 299.956C59.4739 310.006 53.127 319.239 50.5266 330.107C48.7576 337.235 50.4217 341.092 50.006 348.455C49.9012 349.74 49.0697 350.908 48.3407 351.844C47.6128 343.313 46.4681 333.846 47.3007 329.055C49.1733 317.486 52.2944 310.124 52.9186 298.437C53.7513 285.699 46.0523 283.712 44.5955 288.737C41.0575 301.241 39.6019 309.539 36.6882 322.278C34.7107 331.041 36.4797 333.028 37.1039 350.675C37.2087 352.545 40.8503 356.402 42.2023 357.454C54.1681 367.27 68.7344 373.113 75.1849 378.138C81.5318 378.138 87.9823 378.138 94.3291 378.138C94.017 375.45 93.7049 372.762 93.3928 370.074Z" fill="white"/>
    <path fill-rule="evenodd" clip-rule="evenodd" d="M35.4852 324.719C32.2594 319.11 27.3694 313.033 21.7516 310.112C16.1326 304.619 10.41 299.828 4.37526 299.36C0.214294 299.126 -1.76314 302.866 1.98324 306.957C7.7047 313.267 14.0515 319.11 19.0463 326.122C23.5205 332.316 25.8089 340.146 30.2832 346.339C31.8437 348.443 34.5489 349.144 36.6299 350.546C36.3178 342.133 35.1731 338.51 34.861 332.432C34.7574 329.861 35.2768 327.29 35.4852 324.719Z" fill="white"/>
    <path fill-rule="evenodd" clip-rule="evenodd" d="M36.3631 316.836C34.3335 312.952 32.5117 308.954 30.2707 305.3C28.1318 301.766 23.9287 296.917 23.2195 295.387C22.21 293.036 25.7739 290.981 30.8567 292.219C33.0363 292.715 37.6839 295.349 40.6295 300.883C39.0922 307.056 37.7801 311.947 36.3631 316.836Z" fill="white"/>
    <path fill-rule="evenodd" clip-rule="evenodd" d="M729.365 468.813L717.087 472.552L681.608 446.609L729.365 468.813Z" fill="white"/>
    <path fill-rule="evenodd" clip-rule="evenodd" d="M512.638 388.995C505.563 390.164 501.61 394.02 500.256 399.279C500.049 399.98 500.049 400.798 500.153 401.616L525.852 395.306L526.268 398.929L501.193 405.005C502.65 408.16 505.458 410.965 507.644 411.316C506.915 411.199 505.251 411.083 504.419 411.083C500.881 409.68 498.384 406.524 497.656 403.136L471.748 384.554L470.084 380.581L497.448 400.448C497.448 399.98 497.447 399.395 497.656 398.929C498.696 393.903 505.146 389.346 509.412 388.878C510.453 388.995 511.598 388.995 512.638 388.995Z" fill="white"/>
    <path fill-rule="evenodd" clip-rule="evenodd" d="M475.078 360.363L457.182 364.687L455.83 362.467L474.35 357.909L474.869 358.961L475.078 360.363ZM480.384 372.752L471.54 368.895L462.384 369.595L461.551 368.076L473.309 367.376L476.638 364.921L476.534 369.362L480.384 372.752ZM448.234 375.673C442.303 376.607 430.234 375.555 421.078 373.102L445.633 367.842L444.384 365.155L415.98 371.465C415.564 371.349 415.252 371.115 414.835 370.998C396.42 362.934 374.154 349.496 369.576 341.197C369.576 342.249 369.576 343.184 369.576 344.236C373.633 351.248 395.794 365.389 414.731 373.218C425.344 377.659 440.743 378.712 449.587 378.126C449.171 377.309 448.65 376.491 448.234 375.673Z" fill="white"/>
    <path fill-rule="evenodd" clip-rule="evenodd" d="M65.6932 110.222C56.1001 110.222 48.2417 102.275 48.2417 92.4596C48.2417 82.7601 56.1001 74.8134 65.6932 74.8134C75.4015 74.8134 83.2599 82.7601 83.2599 92.4596C83.2599 102.275 75.4015 110.222 65.6932 110.222Z" fill="#FFFEFE"/>
    </g>
    <defs>
    <clipPath id="clip0_78_2">
    <rect width="828" height="836" rx="180" transform="matrix(-1 0 0 1 828 0)" fill="white"/>
    </clipPath>
    </defs>
    </svg>
    