<svg width="28" height="32" viewBox="0 0 28 32" fill="none" xmlns="http://www.w3.org/2000/svg">
    <path d="M14 15.8836C18.11 15.8836 21.4418 12.5518 21.4418 8.44181C21.4418 4.33181 18.11 1 14 1C9.88998 1 6.55817 4.33181 6.55817 8.44181C6.55817 12.5518 9.88998 15.8836 14 15.8836Z" stroke="white" stroke-width="2" />
    <path d="M21.4418 18.8604H21.9657C23.0538 18.8607 24.1044 19.2583 24.92 19.9785C25.7356 20.6988 26.2601 21.6921 26.3951 22.7718L26.977 27.4214C27.0294 27.8403 26.992 28.2655 26.8675 28.6688C26.7429 29.0722 26.534 29.4444 26.2546 29.7608C25.9752 30.0772 25.6317 30.3306 25.2469 30.5041C24.8621 30.6776 24.4448 30.7673 24.0226 30.7672H3.97737C3.55525 30.7673 3.13793 30.6776 2.75311 30.5041C2.3683 30.3306 2.02479 30.0772 1.74539 29.7608C1.46598 29.4444 1.25707 29.0722 1.13252 28.6688C1.00797 28.2655 0.97063 27.8403 1.02297 27.4214L1.60344 22.7718C1.73842 21.6915 2.2634 20.6979 3.07964 19.9775C3.89588 19.2572 4.94716 18.8599 6.03578 18.8604H6.55819" stroke="white" stroke-width="2" stroke-linecap="round" stroke-linejoin="round" />
</svg>
    